<svg id="Calque_1" data-name="Calque 1" xmlns="http://www.w3.org/2000/svg" viewBox="0 0 313 313"><path d="M155.5,155.77c-.61-.23-1.61-1.38.08-4.61l3.92-8.22a.28.28,0,0,0-.39-.38L155.66,146c-1.62,1.69-4.38,6.46-4.92,7.38l-4.15,6.91a.6.6,0,0,1,.54.85l-3.84,6.45c-.92,1.61.77,2.69,1,2.31,6-9.68,9.52-8.92,9.52-8.92l2-4.68c.08-.16-.08-.46-.31-.54"/><path d="M169.18,74.8A62.25,62.25,0,0,0,119.09,174a13.3,13.3,0,0,0,5.07-4.07l11.6-14.83a2.06,2.06,0,0,1,.92-.69l1.77-.77,19.05-24.2,2.77-2.15,5.68-7.91a1.74,1.74,0,0,1,.54-.54l2.46-1.77a1.72,1.72,0,0,1,2.07,0l3,2.08a11.47,11.47,0,0,1,3.76,4.37l12.06,21.13a1.8,1.8,0,0,0,.92.92c2.39,1.16,3.77,1.39,6.92,4.77,1.46,1.53,7.76,8.6,16.59,19.59a12.08,12.08,0,0,0,5,4.07A62.26,62.26,0,0,0,169.18,74.8M123.7,140.48l-4.07-1.3-2.46,3.45v-4.22l-4.07-1.31,4.07-1.3v-4.23l2.46,3.46,4.07-1.31-2.46,3.46Zm-.92,13.91-1.31,4.07-1.31-4.07h-4.22l3.46-2.46-1.31-4.07,3.46,2.46,3.45-2.46-1.3,4.07,3.46,2.46Zm.76-32.19,1.31,4.07-3.46-2.46-3.45,2.46,1.3-4.07-3.45-2.46H120l1.31-4.07,1.3,4.07h4.23Zm6.84-9.14-2.46-3.46-4.07,1.31,2.46-3.46L123.85,104l4.07,1.31,2.46-3.46v4.23l4.07,1.3-4.07,1.31ZM141,98.23l-1.3,4.07-1.31-4.07h-4.22l3.45-2.46-1.3-4.07,3.45,2.46,3.46-2.46-1.3,4.07,3.45,2.46Zm13.37-6.84-2.46,3.46V90.62l-4.07-1.3L151.89,88V83.79l2.46,3.45,4.07-1.3L156,89.4l2.46,3.45Zm17-3.84,1.3,4.07-3.45-2.46-3.46,2.46L167,87.55l-3.46-2.46h4.22L169.1,81l1.31,4.07h4.22Zm15.21,3.07v4.23l-2.46-3.46L180,92.7l2.46-3.46L180,85.78l4.07,1.31,2.46-3.46v4.23l4.07,1.3Zm28.12,43,4.07,1.3,2.46-3.46v4.23l4.07,1.31-4.07,1.3v4.23l-2.46-3.46-4.07,1.31,2.45-3.46Zm-16-31.35-1.31-4.07h-4.22l3.45-2.46-1.3-4.07,3.45,2.46,3.46-2.46-1.3,4.07,3.45,2.46h-4.22ZM208,113.06v-4.23l-4.07-1.3,4.07-1.31V102l2.46,3.46,4.07-1.3L212,107.6l2.46,3.46-4.07-1.31Zm7.69,6.68,1.3-4.07,1.31,4.07h4.22L219,122.2l1.3,4.07-3.46-2.46-3.45,2.46,1.3-4.07-3.45-2.46Zm2.61,34.65L217,158.46l-1.3-4.07h-4.23l3.46-2.46-1.31-4.07,3.46,2.46,3.46-2.46-1.31,4.07,3.46,2.46Z"/><path d="M191.76,173.06c.31-.47.77-1.62-.15-3.85l-2.77-7.37c-.38-.92.47-1.54,1-.92,0,0,5.23,6,6.53,8.52l2.54,4.23c2.23.15,8.29.31,14.21.31a13.11,13.11,0,0,1-1.61-1.92c-10-12.45-16.37-19.36-16.44-19.36a10.78,10.78,0,0,0-4.54-3.31c-.23-.07-.46-.23-.69-.3V151a.25.25,0,0,1-.46.15l-14.75-25.89-.07-.08a8.58,8.58,0,0,0-2.62-3.07l-1.46-1-7,16.21a1.54,1.54,0,0,1,1.39,2.15l-6.46,15h6a18,18,0,0,1,6.69,1.31l1.53.61s-4.76,9.76-4.76,14.91a11.41,11.41,0,0,0,.39,2.76h10.9l-.53-3.07c.15-.08,6.68,1.46,13.13,2.08"/><path d="M108.72,190.34C108.72,179.28,97,174,83.06,174c-14.9,0-28.58,6.6-33.57,16.82a19.46,19.46,0,0,0-2.08,8.84,13.24,13.24,0,0,0,2.08,7.45c2.15,3.15,6,5.14,11.6,5.14,6.91,0,12.37-3.76,12.37-10.37A1.83,1.83,0,0,0,71.38,200c-1.76,0-2.23,1.23-2.15,1.84.23,5.15-2.84,9.3-8.3,9.3-6.14,0-8.68-5.22-8.68-10.76,0-11.37,8.61-19,17.52-22.27a34.49,34.49,0,0,1,13.06-2.31c10.14,0,18.44,3.92,18.44,14.29,0,8.68-7.3,16.13-16.06,16.75l.38-1.16c1.77-6.37,4-13.36,7.61-18.59a10.44,10.44,0,0,1,1-1.3l-.54-.62c-.77.46-1.46,1-2.23,1.54-16.74,13.06-17.28,49.93-39.64,49.93a22.2,22.2,0,0,1-2.3-.15c-4.69-.77-7.15-3.92-7.15-8.22,0-.84.31-2.07.31-2.69a2.24,2.24,0,0,0-2.23-2.3h-.07c-2,0-2.85,1.61-2.85,3.84-.15,6.53,4.69,10.29,12.06,11,.85.08,1.62.08,2.54.08C69.54,238.2,80.22,225,84.75,209a35.19,35.19,0,0,0,6.84-1.46c8-2.23,17.13-7.68,17.13-17.21"/><path d="M274.89,194.18h-6.15l-1.38,3.23L265,202.86h-2.85l-.84,1.85h3l-3.61,7.91c-2.53,5.61-6.53,11.06-8.83,11.06-.54,0-.85-.23-.85-.69a6.88,6.88,0,0,1,.69-2.38c.7-1.69,1.93-4.15,2.77-5.92,1.31-2.61,3.3-6.68,3.3-8.68A3.46,3.46,0,0,0,254,202.4c-2.84,0-5.38,1.69-7.76,4.15l1.54-3.69H242l-4.69,10.76c-1.92,3.76-5.76,10.06-8.14,10.06-.54,0-.7-.31-.7-.84a4.36,4.36,0,0,1,.39-1.31c.23-.46,3-7.07,3-7.07L237,202.79h-6.22l-5,11.37c-1.54,3.53-5.46,9.52-7.92,9.52A.72.72,0,0,1,217,223v-.23a7.62,7.62,0,0,1,.84-2.54l2.61-5.76,5.38-11.67h-6.22l-1.23,2.68c-.92,1.77-2.46,3.92-4.92,3.92a2.06,2.06,0,0,1-2-.92c-.39-3.92-2.85-6.07-6.53-6.07-5.15,0-8.76,3-11.14,6.69a32.26,32.26,0,0,0-3.69,8.14c-2.23,3.61-4.53,6.45-6.38,6.45-.46,0-.76-.23-.76-.84a9.84,9.84,0,0,1,.84-2.54l4.07-8.6c1.15-2.69,1.92-4.38,1.92-6.15a3.09,3.09,0,0,0-3.38-3.15c-2.92,0-6.07,1.69-8.6,4.46a7.21,7.21,0,0,0,.08-1.31c0-2.07-1-3.15-3.15-3.15-2.69,0-5.46,1.61-7.92,4.46l1.62-4h-5.61l-4.76,10.76c-2.23,5.07-5.92,10.06-7.92,10.06-.46,0-.77-.23-.77-.84,0-1,1.08-3.38,1.46-4.38l6.3-14.29c.46-1.08-2.53-1.77-6.37-1.77a17.48,17.48,0,0,0-10.91,4.46c-2.08,1.76-3.61,2.61-4.38,2.61-.38,0-.54-.23-.54-.46,0-.85,2.08-3.31,2.08-5.23,0-.84-.47-1.46-1.62-1.46-2.23,0-4.91,2.16-6.83,4.38l1.61-3.91H124.7l-4.77,10.75c-2.22,5.07-6,10.37-8.06,10.37-.46,0-.77-.23-.77-.84a15.56,15.56,0,0,1,1.61-4.54l6.3-14.28c.46-1.08-2.53-1.77-6.37-1.77-5.69,0-11.22,3.84-14.14,7.76-3.23,4.22-5.45,8.76-5.45,12.44-.08,3,1.46,4.84,4.53,4.84,3.46,0,6.22-2.69,7.76-4.76-.08.38-.16.84-.23,1.23,0,2.07.84,3.53,3.3,3.53,2.23,0,5.15-1.84,7.45-4.76l-1.92,4.38h6l5.92-13.37c1.92-4.38,4.15-6.61,4.76-6.61.23,0,.31.08.31.23,0,.47-.92,1.7-.92,2.85s.61,2,2.23,2a7.77,7.77,0,0,0,4-1.45c-3,4.07-5.07,8.37-5.07,11.9-.08,3,1.46,4.84,4.53,4.84,3.23,0,6.23-3.07,7.92-5.14a8.4,8.4,0,0,0-.08,1.45,3.37,3.37,0,0,0,3.46,3.69c2.53,0,4.61-1.61,7.14-4.68l-1.92,4.3h6.15l5.6-12.75c2.46-5.54,5.77-8.53,7.46-8.53a.76.76,0,0,1,.84.69v.15a4.74,4.74,0,0,1-.54,1.77l-8.06,18.67H170l5.76-13c2.46-5.61,5.14-8.3,7.22-8.3.61,0,.84.31.84,1a6.32,6.32,0,0,1-.53,2.07l-5.54,11.76a10.23,10.23,0,0,0-.92,3.61c0,1.76,1,3.38,3.77,3.38,3.61,0,6.3-2.69,9.37-6.76v.84c.23,3.23,2.07,6.07,6.84,6.07,5.6,0,10.14-3.92,12.9-10.06a22.28,22.28,0,0,0,2-6.92,3.64,3.64,0,0,0,2,.39,5.54,5.54,0,0,0,2.69-.7l-1,2.08c-1.15,2.38-2.38,5-3.31,7.14a11.22,11.22,0,0,0-1.07,4.15,3.44,3.44,0,0,0,3.76,3.77c2.54,0,5.92-2.39,8.38-5.69h.07a9.75,9.75,0,0,0-.23,2.08c0,1.84.54,3.61,3.15,3.61,3,0,5.3-2.15,7.53-4.84l-1.92,4.3h6.22l5-11.22c2.84-6.37,5.61-10.14,8.22-10.14a.79.79,0,0,1,.84.77v.15c0,1.08-1.53,4-2.92,6.92-1.3,2.69-2.22,4.68-2.92,6.3a11.53,11.53,0,0,0-1.07,4.22,3.19,3.19,0,0,0,3.46,3.46c3.61,0,7.22-3.46,9.14-6.07a11.44,11.44,0,0,0-.69,3.92c0,3.61,2.15,5.38,5.14,5.38a10,10,0,0,0,5.61-1.85,24.27,24.27,0,0,0,5.84-6.37l-1.08-1a23.41,23.41,0,0,1-4.84,5.3,5.36,5.36,0,0,1-3.15,1.23c-1.3,0-2.07-.69-2.07-2.31s.77-3.84,1.92-6.83c.08-.08,1.77-3.85,3.3-7.46,1.31-3.07,2.69-6.07,2.92-6.68h4.07l.85-1.84h-4Zm-174.55,29.5c-.84,0-1.46-.31-1.46-1.46.08-3,2.54-8.37,5.69-12.67,2.23-3,5.07-5.15,8.14-5.15l-3.92,8.68c-2.91,6.53-6.06,10.6-8.45,10.6m38.26,0a1.34,1.34,0,0,1-1.53-1.46c.07-3,2.53-8.37,5.68-12.67,2.23-3,5.07-5.15,8.14-5.15L147,213.08c-2.92,6.68-5.92,10.6-8.38,10.6m68-16.9c-.15,3.3-3.07,11.37-6.53,16.13-1.38,1.92-2.53,2.54-3.61,2.54-1.46,0-1.84-1.15-1.61-2.92.3-3,2.84-10.06,6.3-14.9,1.61-2.23,2.68-3.15,3.91-3.15s1.54,1,1.54,2.3"/></svg>