<svg id="Calque_1" data-name="Calque 1" xmlns="http://www.w3.org/2000/svg" viewBox="0 0 313 313"><path d="M144.81,105.08a2.25,2.25,0,0,0-2.52-2.41H133.4c-3.52,0-6,1.76-6,6.07v76.08a2.27,2.27,0,0,0,2.54,2.42h8.87c3.53,0,6-1.77,6-6.08V105.08Z"/><path d="M246.33,130.74c0-1.43-1.05-2.13-2.49-2.13H233.06a3.68,3.68,0,0,0-3.92,2.51l-15.2,33.73-21.19-33.38c-1.29-2.07-2.69-2.86-5.83-2.86H174.11a6.74,6.74,0,0,0-5.67,2.4l-22.56,24.24,20.23,29.49c1.17,1.7,2.15,2.49,3.91,2.49h12.06c1.81,0,2.86-.72,2.86-2.24a4,4,0,0,0-1.05-2.38l-17.78-26.32,13.48-14.53,26.66,39.4-11.77,24.89a5.87,5.87,0,0,0-.72,2.15c0,1.44,1.06,2.13,2.5,2.13H207a3.66,3.66,0,0,0,3.91-2.5l34.75-74.93a5.44,5.44,0,0,0,.71-2.16"/><path d="M88.37,148.89c-3.54-.8-4.64-1.8-4.64-3.59,0-1.39,1.1-2.49,4.3-2.49h25.86c4.31,0,6-2.52,6-6v-5.63a2.25,2.25,0,0,0-2.4-2.53H87.25c-13.5,0-20.58,7.82-20.58,17.77,0,8.87,5.44,14.26,16.34,16.69L100.38,167c3.54.79,4.64,1.8,4.64,3.61,0,1.37-1.1,2.48-4.28,2.48h-27c-4.31,0-6.06,2.5-6.06,6v5.62a2.27,2.27,0,0,0,2.39,2.55H99.69c16,0,22.39-7.82,22.39-17.08,0-9.57-5.51-15-16.33-17.38Z"/></svg>