<svg id="Calque_1" data-name="Calque 1" xmlns="http://www.w3.org/2000/svg" viewBox="0 0 313 313"><defs><style>.cls-1{fill:#1d1905;}</style></defs><path class="cls-1" d="M240.11,273a3.28,3.28,0,0,0,3.26-3.26,3.27,3.27,0,0,0-6.53,0,3.28,3.28,0,0,0,3.27,3.26Zm-2.9-3.26a2.9,2.9,0,0,1,4.95-2.05,2.91,2.91,0,0,1-2,4.95,2.85,2.85,0,0,1-2.05-.85,2.88,2.88,0,0,1-.85-2.05Zm2.9,0h0Z"/><path class="cls-1" d="M238.75,268h1.72a1,1,0,0,1,1.07,1,.81.81,0,0,1-.52.81c.28.12.43.23.43.86s0,.62.15.68v.09h-.79a2.62,2.62,0,0,1-.07-.69c0-.46,0-.64-.56-.64h-.73v1.33h-.7V268Zm1.53,1.5c.37,0,.55-.13.55-.47,0-.18-.08-.44-.49-.44h-.89v.91Z"/><path class="cls-1" d="M159.28,252.07l-3.3,5.6h2.72l.58-5.6Zm-56.09-4.74h-2.65L95.63,258.8c.75-.13,3-.46,3.58-.63s1.22-.87,2-2.54,2-4.68,2.58-6.22.06-2.08-.59-2.08ZM207,245.72c1.42,0,2.08,1.21.69,2.62s-15.42,16.72-15.89,17.26-.68,1.07.16,1.07h8.51l-.75,1.93H186.51c-1.56,0-2.12-1.07-.64-2.67s15.71-16.93,16.26-17.53.39-.87-.13-.87h-7.71l.65-1.81Zm-28.3,0s-7.67,18.2-8.25,19.47.16,1.47.87,1.47h5l-.76,1.94h-9.1c-1.69,0-2.3-1.14-1.38-3.28s8.46-19.61,8.46-19.61Zm-14.1,0-1.92,22.89h-5.08l1-9.29h-4.15l-6.14,9.3h-4.89s14-20.67,14.51-21.41a3.51,3.51,0,0,1,2.27-1.49Zm-13.48,0-9.73,22.89H136l9.92-22.9Zm41.45,0-9.73,22.89h-5.34l9.93-22.9Zm-49.34,0-.74,1.63H135.7c-1.69,0-1.86.74-2.25,1.54s-6.67,15.59-7,16.39-.35,1.41.76,1.4H134l-.61,1.94H122.49c-1.95,0-2.34-1.27-1.62-3s7.26-16.92,7.79-18.26,2-1.69,3.53-1.69Zm-16.05,0-.8,1.56h-6.12c-1.69,0-2.28.47-2.86,1.74s-3.06,7.18-3.06,7.18h6.57L120,257.9h-6.37s-2.45,5.61-3.05,7-.48,1.81.56,1.8h6.89l-.82,1.94H106.5c-1.49,0-2.48-.74-1.55-3s6.69-15.72,7.49-17.53a3.7,3.7,0,0,1,3.87-2.37Zm98.22,0-.8,1.56h-6.12c-1.69,0-2.28.47-2.86,1.74s-3.06,7.18-3.06,7.18h6.58l-.88,1.66h-6.36s-2.46,5.62-3.06,7-.47,1.81.57,1.81h6.88l-.82,1.93H204.72c-1.49,0-2.48-.73-1.55-3s6.7-15.72,7.49-17.52a3.7,3.7,0,0,1,3.87-2.37Zm-118,.06c1.88,0,2.73,1.43,2,3.5s-1.65,3.95-2.94,6.89-2.19,3.28-4.65,3.62l-7,1-3.48,7.93h-5l10.12-22.91Zm-13.71,0-.79,1.6-7.36,0c-1,0-1.52.6-2,1.47a24.9,24.9,0,0,0-1.18,2.61,2.31,2.31,0,0,0,.46,2.94c.93.74,2,1.78,3,2.61,1.78,1.53,2.27,2.25.84,5.55-1.11,2.54-.54,1.4-1.52,3.54s-2.09,2.61-3.78,2.61H69.63l1-1.94h7.21c1.29,0,1.66-.67,2.22-1.81s.75-1.47,1.46-3.14.89-2.48-.07-3.42-2.22-2-3.65-3.27-1.38-1.61-.65-3.41,1-2.41,1.73-4.08,2-1.84,3.41-1.84Zm132.51,20.88h1.28c1.3,0,1.66-.67,2.13-1.61s6.09-13.91,6.73-15.52.18-2-.8-2h-3.36L224,266.65h2.21ZM218,268.56l9.82-22.94h12.48c1.82,0,2.17,1.87,1.64,3.21s-6.54,15.17-7.25,16.84-1.74,2.88-3.49,2.88Z"/><path d="M138.57,187.51c.09-.16-.12-.49-.19-.64-.3-.63-1.28-.83-1.21-1.61s1-2.27,0-2.37c-.5,0-1.36.16-1.47-.43a2,2,0,0,1,.3-1.41c.16-.21.7-.28.77-.51.15-.46.58-.58.71-.94a3.23,3.23,0,0,0,0-2.15.89.89,0,0,1,.46-1.06,2,2,0,0,0,.94-1.4c.17-1.36,0-2.66.81-4,.23-.36-.45-.45-.81-.66s-.13-.47.2-.73c-.27.37.25.32.28.53.22-.23.57-.45.59-.7,0-.41.25-.8.31-1.18.4-2.33,1.17-5.39,2.55-6.42h.08c0,.34.3.61.29,1-.35-.05-.46-.13-.75.16.21.17,0,.6.24.61a7.6,7.6,0,0,0,1.07,0c.35,0,.56.36.83.44.69.19.54-.63.76-1-.38-.16-.17-.54-.23-.81a3,3,0,0,1,0-.67c.06-.71-.91-1.45-.66-2.24a3.65,3.65,0,0,0,.31-1.23c-.06-1.12.46-2.23.07-3.36a2.88,2.88,0,0,0,1.3-.37c.63-.27.38-1.24.92-1.7-.22-.22.07-.58-.27-.82s.39-.37.09-.65c.15,0,.39,0,.37-.15,0-.41-.25-.82-.32-1.21,0-.19-.23-.69.17-.76s.43-.33.66-.44.37-.08.36.1c0,.68.42,1.2.45,1.87,0,.2.1.67.47.79a.44.44,0,0,0,.61-.42c0-.39-.12-.81-.08-1.2,0-.16.35-.16.51-.21.69-.22.91,1.05,1.59.65.52-.3.09-1.7.11-1.86s-.21-.36-.45-.44c-.41-.13-.69-.52-1.2-.49-.14,0-.19-.41-.19-.47a2.32,2.32,0,0,0-1.36-2.25c.08-.1.16-.23.26-.26.55-.14,1,.38,1.47.29s1.17-.22,1.27-.8a1.7,1.7,0,0,0-.31-1.27,3.85,3.85,0,0,1-.72-1.39c-.18-.57.45-1.1.29-1.74.63-.11.72.53,1.08.81a.24.24,0,0,1-.1.37c.6.37.43,1.34,1.13,1.53a7.2,7.2,0,0,1,1.68.51c.42.26.44,1.09.95,1.42a1.19,1.19,0,0,0,1,.28c.39-.12,0-.48,0-.65,0-.66-.63-1.24-.65-2a17.56,17.56,0,0,0-.84-4.39c-.08-.27-.43-.41-.62-.68a5,5,0,0,1-.29-.56c-.36-.68.18-1.58.39-2.35.57.49.43,1.69,1.16,1.69a2.59,2.59,0,0,0,2-1.62c.26-.7.65-1.91-.25-2.6-.13-.1-.41-.15-.43-.32s.22-.46.27-.66a5.27,5.27,0,0,0-.32-2.43,3.72,3.72,0,0,0,1-.35c.24-.07.63-.12.8-.43.53.37.49,1.07.42,1.68,0,.18.29.16.31.11a17.51,17.51,0,0,0,.77-2,3.4,3.4,0,0,0-.6-2,.39.39,0,0,0,.2-.49c-.53-1.07,1.15-4.74,2.14-3.08a2.1,2.1,0,0,1-.16-1.08,3.86,3.86,0,0,1,.22-1.78c.24-.42,1,.07,1.17-.56a5.43,5.43,0,0,0,.44-2.19c.6,0,.75-.63,1.16-.91-.19-.24-.63-.42-.57-.62a.64.64,0,0,0-.31-.7s0,0,0,0h0c-.71.43-1.29,1.19-2.11,1.36a1.72,1.72,0,0,0-1.06.53,2.32,2.32,0,0,1-1,1c-2.39,1.13-4.33,3.27-6.49,4.68-1,.62-2.26,1.22-3.27,1.79a.45.45,0,0,0,0,.6c-.14,0-.35-.06-.36.13a1.28,1.28,0,0,1-.83,1.21,1.79,1.79,0,0,0-1.19.88,2.19,2.19,0,0,1-1,1.07,3.52,3.52,0,0,1-1.49.43c-.77.13-.62,1.19-1.3,1.71-1.9,1.46-4,2.32-5.64,3.94-.29.27-.36.91-.73,1a11.74,11.74,0,0,0-1.34.84c-1.06.51-2.87,2.53-3.9,3.18a6.77,6.77,0,0,0-1.64,1.3,7.83,7.83,0,0,1-2,.81.87.87,0,0,1-.74,0,2.54,2.54,0,0,0-.73-.28,2.2,2.2,0,0,1-.8-.51,13.85,13.85,0,0,1-1.38-1.26c-1-1.08-2-2.25-3.14-3.25a21.14,21.14,0,0,1-2.44-2.48,27.61,27.61,0,0,1-3.06-3.88c-.23-.39-.63-.65-.85-1.05-.33-.62-1-1.1-1.29-1.75-.48-.92-1.39-1.65-1.4-2.7a13,13,0,0,1,.89-4c.08-.26.43-.42.57-.68.69-1.32,1.59-3.28,2.2-4.58a1.13,1.13,0,0,1,1.06-.72c.64.06.9-.56,1.08-.93s-.1-.75-.26-1.15.1-.67,0-1c.68-.09,1.31-.94,1.71-.44a1.74,1.74,0,0,0,1.26.79c.44,0,.34-.33.67-.58.12-.09.33,0,.49-.05a.53.53,0,0,0,0-1,1.69,1.69,0,0,1-1.2-1.58,4,4,0,0,1,1.35-3.08c.18-.12.76-.34.86-.25.52.46-.07,1.56.82,1.71.49.08,1.36,0,1.28-.56s-.94-.85-1-1.44c0-1,1.39-.86,1.72-1.49a6.23,6.23,0,0,0,.37-4.75c-.13-.4.62-.28,1-.39.65-.22.48,1,1.13,1.33.1-.24.48,0,.49-.26l.1-1.32c.15-.58.16-1.15.35-1.68.1-.27.37-.86.67-.89s.89-.45.91-.81-.48-.79-.44-1.29c.09-1,1.52-.57,1.92-1.43.09.09.21.24.25.23.6-.32,1-.91,1.7-1.13.32-.11.53.17.78.2s.51,0,.46-.19a3.25,3.25,0,0,1,0-.44,4.36,4.36,0,0,1,0-.73,2,2,0,0,0-.85-1.82c.14-.14.57-.63.83-.63.2-.28.59-2.15,1.79-.94.26.26.56-.11.86-.17.46-.09.18-.66.2-1a3.37,3.37,0,0,1,.12-1,1.63,1.63,0,0,1,1-.79l-.13-.13a1.44,1.44,0,0,0,.51,0c.7-.33.53-1.06.65-1.66.05,0,.09.11.13.11s.09-.1.13-.1.09.07.13.11c.13-.58.66-1,.78-1.55.45.14.19-.38.52-.5.13-.05.33,0,.37-.15,0,0-.07-.08-.12-.12.53,0,.78-.46,1-.81a2.16,2.16,0,0,0,.13-1,5.17,5.17,0,0,1,.83-2.51c.27-.44,1.05-1,1.56-.21.39-.45,0-1.25.65-1.35.24,0,.4.38.75.5.62.21-.32,1.16.42,1.3s.6-.37.84-.93c.14-.34.72-.15,1.06-.25s0-.71-.23-1a1.59,1.59,0,0,0-.13.13c0-.14.06-.34-.13-.37-1.07-.14-.35-1.15-.17-1.71,0,0-.16-.15-.21-.26s.44-.13.12-.38c.41,0,1,0,1.09-.41a4.86,4.86,0,0,0,.07-.62c.13,0,.22-.11.25-.1.51.2,1.25,1.08,1.34.34.06-.52.18-1.44.66-1.72.12-.07.52-.07.54-.21.07-.51-.38-1-.53-1.43,0-.07.12-.41.23-.37.43.14,1,.21,1.26,0,0,0,0,0,0,0,.23-.62-.93-.78-1.55-.89,0,0,.12-.09.11-.13s-.11-.16-.24-.13c.15-.25.13-.59.4-.76.06,0,.19,0,.24,0a1,1,0,0,0,.15-1.41c-.17-.18.5-.11.12-.38a1.91,1.91,0,0,0,.76,0,3,3,0,0,0,1.35-.92c.24-.38.36-.92.76-1.05s.95-.12,1.27-.58c-.22-.13-.1-.34-.13-.52.17,0,.38-.08.51.13.55-.43.45-1.24,1-1.63.29-.23,1,0,1.07-.45a3.76,3.76,0,0,1,1.27-2.12c.37-.32,1-.36,1.3-.76s0-.87.14-1.22c.27-.68,1.08-.93,1.41-1.61.1-.22-.15-.64.21-.86a.9.9,0,0,1,1.16.37c.42-.58.06-1.32.38-1.94s.59-1.53,1.22-1.84a2.43,2.43,0,0,0,1.18-.9,2.61,2.61,0,0,0,.45-1.39c.14,0,.3.05.39-.13.31.16.35.77.44.69.84-.79-.09-2.23.41-3.24.22-.43.92,0,1.32-.22.11-.06.38-.11.37-.47s.15.15.3.13a.68.68,0,0,0,.4.86c.27.08.7-.14.84.08s-.15.81-.1,1.11a6,6,0,0,0,.75,1.47c.14.28-.37.55-.29.87a7.79,7.79,0,0,1,.39,3.23c-.1.49-.63.84-.7,1.44s.6.9.6,1.55.06,1.18-.49,1.35c-.19.06-.48,0-.59.22s.4.41.23.76a1.77,1.77,0,0,1,1.1.92c.39,1-.23,2.9,1.35,3.08.1,1.06.88,2,.76,3a10.57,10.57,0,0,1-2.85,4.9c-.55-.25-1.57,1.33-1.92,1.59a3.19,3.19,0,0,1,.26.26c-.28.23-.19.61-.39.9s-.79.26-.85.65c-.14.81-.88,1.4-1.34,2.07.25.17,0,.39-.06.49-.5,1-1.69,1.19-2,2.45-.07.3-.92.24-1,.69-.12.82-.89,1.14-1,1.92-.07.44-.67.09-.84.41-.06.1,0,.27,0,.38.06.49-.41.72-.84.9a1.59,1.59,0,0,0,.13.13c-.5-.06-.56.5-.91.64a.75.75,0,0,1-.53,1,.85.85,0,0,1-.76-.45c0,.2-.37.06-.38.26,0,.54.57,1,.31,1.52a4.06,4.06,0,0,1-.87,1.16c-.45.41-1.32.39-1.51.75s-.11,1.23-.29,1.87-1.34.16-1.44.79c0,.32.32,1-.11,1.23s-1.15.48-1.33,1-.92.85-.76,1.36c0,.05,0,0,0,0,0,.32-.25.56-.32.79-.27,1-1.31,1.52-2,2.29-.1.1.16.57,0,.82-.27.49-1.16.25-1.28.69a2,2,0,0,0,0,1.24c.36.73,1.43.71,1.88,1.45.45-.34.25-1.14.1-1.58s.67-.64,1.19-.77c.1,0,.21-.22.24-.2.54.29.83,1,1.45,1.07s.72-.54,1-1c.16-.27-.28-.42-.29-.76s0-.53.2-.61a1.77,1.77,0,0,1,1,0c.39.11.44.81.63.77.84-.17-.23-1.25.06-1.94.11-.26.57-.3.68-.12s.25.74.59.82c.16,0,.53,0,.57-.1.42-.95,1.27-.94,2.11-1.11s-.65-1.65.09-1.68l1.38,0a1,1,0,0,1,.23.12.52.52,0,0,1,.33-.18c-.07-.27.29-.69-.07-.86.22-.3.67-.33,1-.37.52,0,.66-1,1.32-1.13.3,0,.59.44.86.29.47-.28,1,0,1.27-.26a2.83,2.83,0,0,0,.65-.87c.14-.41-.28-1.17.21-1.32s.82.63,1.26.61,0-.53,0-.84a2.1,2.1,0,0,1,.77-1.36c.19-.16.51,0,.76.18a.48.48,0,0,0,.48,0,1.46,1.46,0,0,0,.61-1.14c0-.31-.17-.7.2-.87a1,1,0,0,1,1.19.29c.18.23-.47.59-.47.84s.49.71.84.84c.18.07.34-.34.33-.57s-.3-.64-.29-.91c0-.66.33-1.42,1-1.47.44,0,.78.71,1.28.63s.49-.92.94-1a1,1,0,0,0,.69-.63c.14-.29.24-.71.48-.81a1.17,1.17,0,0,1,1,0c.34.23.42.76.82,1a2,2,0,0,0,.64.12c.39,0,.89,0,1-.5a.76.76,0,0,1,.45-.59,1.14,1.14,0,0,0,.51-.3,1.47,1.47,0,0,0,1.85-.25c.11-.18.83-.42.83-.66,0-.48.85-.82,1.4-1.11a5,5,0,0,1,1.87.21s-.17.2-.16.24.32.21.46.22c-.08.67.4.94.71,1.4.78,1.17,1.55,2.5,2.27,3.64.85,1.36,1.62,3,2.42,4.32a19.2,19.2,0,0,1,1.77,3h0c.56,1.49,1.24,3.13.9,4.69-.27,1.21-1.52,1.92-2.25,3-.32.49-.5,1-.78,1.54a3,3,0,0,1-.88,1,2.73,2.73,0,0,0-1.16,1.87,1.84,1.84,0,0,1-.46.94c-1.37,2-4,6.72-5.43,8.66-.48.63-2.42,4.26-2.81,5a4.58,4.58,0,0,1-1.2,1.73c.33.36-.16.6-.23.89a1.87,1.87,0,0,1-.8,1.18c.33.36-.17.59-.23.89a7.07,7.07,0,0,1-1.14,2c-.33.6-.84,1.21-1.08,1.78a18.35,18.35,0,0,1-1,2l-.13.23a49.44,49.44,0,0,0-3.34,6.67c-.13.36-.67.61-.74.95s-.59.62-.55,1.15-.63.76-.77,1.18a5.77,5.77,0,0,1-.51,1.37,2.29,2.29,0,0,1-.18.31s-1.46,2.66-1.51,2.84.13.53.08.69a5.44,5.44,0,0,0-.51,1,4.58,4.58,0,0,1-.75,1.22,12.72,12.72,0,0,0-1.34,2.72,43.17,43.17,0,0,1-2.65,5.19c-.27.37-2.63,5.38-2.78,5.65s0,.68-.15,1.22-2.13,6.27-2.29,6.62a3.47,3.47,0,0,1-.46.67c-.14.21-.87,3-1.06,3.31s-.37.36-.42.81a14.56,14.56,0,0,1-.59,2.91c-.18.09-.6.44-.6.67a4.31,4.31,0,0,1-.38,1,2.3,2.3,0,0,0-.58,2.23c.34,1.41-.61,1.26-.71,1.9s-.74.62-.35,1.72-.11,1.18-.11,1.55-.59,4.37-.74,4.87a12.89,12.89,0,0,0,0,2.24,6.08,6.08,0,0,1-.88,2.85c.36.16-.11.47.13.65a3,3,0,0,0-.53,1.45,4.55,4.55,0,0,0-.08,1.67c0,.37.21.9-.17,1.28.31.18.16.59.16.77a20,20,0,0,1-.17,3.52,27,27,0,0,0-.14,4.76c0,.19-.15.59.15.78-.35.53-.05,1.13-.05,1.68a29.29,29.29,0,0,0,.28,3.35c.12,1,.54,2,.71,3,.08.51-.25,1.14-.2,1.66.19,2,1.24,3.8,1.53,5.83.14,1,1.18,1.23,1.31,2.07a2.13,2.13,0,0,1-.29,1.18c-.1.21.18.48.28.73.19.46,1.09.17,1.29.69.12.28-.36.53-.39.77,0,.47.71.79.63,1.27a.91.91,0,0,0,.14.51c.2.53,1.14.37,1.3.94a13.32,13.32,0,0,0,.89,1.69c.21.54.52,3-.25,2.87a3.13,3.13,0,0,1-2.64-3c.07-.83-.9-1.48-1.33-2.12-1-1.39-1.89-1.77-2.31-3.46-.07-.26-.41,0-.51-.26-.14.13-.54.05-.46.23.16.33-.16.36-.2.37-1.17.42-2-1.18-2.6-2.1a3.19,3.19,0,0,0-1-1.32c-.95-.53-1-1.62-1.92-2.28-.55-.41-.56-1.51-.41-2.43s-1.06-.6-1.05-1.16c0-.35-.32-.31-.35-.52-.25.32-.51-.22-.77,0-.11-.2,0-.45-.15-.63s-.43-.42-.62-.67a34.67,34.67,0,0,1-2.78-5.33c-.14-.28.37-.8-.07-1.13a.24.24,0,0,1-.36.11c-.35-.42-1.08-.21-1.08-.63s-.28-1-.52-1.06a5.32,5.32,0,0,1-1.24-.46c-.36-.15-.31-1.06-.82-1.11a.75.75,0,0,1-.77-.6c.09,0,.2,0,.24,0,.23-.24.49-.55.25-.87s-.6-.33-1-.45-.14-.55-.16-.87c0-.48-.51-.76-.57-1.17s-.41-.61-.16-.87.11-.72.17-1.07c.12-.72-.86-1.23-.64-1.9a.64.64,0,0,1,.71-.21c.21.06.17-.38.16-.46a19.81,19.81,0,0,0-.6-3.13c-.1-.52.22-1.13.21-1.66,0-1.5.21-3.1-.49-4.49-.11-.22-.37-.47-.4-.69-.08-.54.58-.55.88-.78h.94a.89.89,0,0,0,.3.42.6.6,0,0,0,.41.11c0,.77,1.2.58,1.43.17Z"/></svg>