<svg id="Calque_1" data-name="Calque 1" xmlns="http://www.w3.org/2000/svg" viewBox="0 0 313 313"><path d="M94.23,193.2A5.11,5.11,0,0,1,99.61,188a5.53,5.53,0,0,1,3.33,1l-.69,1.18a4.13,4.13,0,0,0-2.52-.75,3.83,3.83,0,1,0,0,7.65,4.38,4.38,0,0,0,2.53-.7l.68,1.17a5.64,5.64,0,0,1-3.33.92A5.07,5.07,0,0,1,94.23,193.2Zm23.39-5.09v10.17h-1.49v-4.45H110.2v4.45h-1.49V188.11h1.49v4.39h5.93v-4.39Zm12.79,8h-4.89l-.88,2.14h-1.58l4.37-10.17h1.1l4.34,10.17h-1.59ZM126,194.85h3.86L128,190.2Zm21.25,3.43-.17-7.1-3.2,5.67h-1l-3.11-5.7-.19,7.13h-1.48l.38-10.17h1l3.91,7,4-7h.95l.36,10.17Zm15.54-6.64c0,2.24-1.7,3.49-4.08,3.49h-1.91v3.14h-1.49V188.11h3.45C161.14,188.11,162.82,189.41,162.82,191.64Zm-1.55,0a2.25,2.25,0,0,0-2.55-2.19h-1.89v4.36h1.89C160.27,193.8,161.27,192.94,161.27,191.63ZM174,196.14h-4.89l-.89,2.14h-1.57l4.37-10.17h1.09l4.35,10.17h-1.6Zm-4.39-1.29h3.86l-1.92-4.65Zm20.62-1.41v3.87a6.67,6.67,0,0,1-3.85,1.1,5.22,5.22,0,1,1,0-10.43,5.71,5.71,0,0,1,3.39,1l-.68,1.18a4.41,4.41,0,0,0-2.62-.75,3.85,3.85,0,1,0-.06,7.7,5.48,5.48,0,0,0,2.34-.49v-3.14Zm15-5.33V198.4h-.87l-6.47-7.63v7.51h-1.46V188h.88l6.44,7.63v-7.53ZM218.77,197v1.31H212V188.11h6.77v1.33h-5.28v3h4.63v1.33h-4.63V197Z"/><path d="M81.94,152.07a1.35,1.35,0,1,0-1.39-1.35,1.37,1.37,0,0,0,1.39,1.35Zm4.93,0a1.35,1.35,0,1,0-1.39-1.35,1.37,1.37,0,0,0,1.39,1.35Zm4.47,16.82v4.55H77.42v-.18l2-1.58V155.94l-2-1.65v-.18H90.63V158h-.18l-2.17-2.57h-5.4v7.13h3.46l1.52-2.05H88l0,5.35h-.15l-1.53-2H82.89v8.29h6l2.26-3.24Zm128.34-14.6-2.13,1.65,0,17.5h-1.38l-11.72-15.1,0,13.24,2.52,1.68v.18h-6.26v-.18l2.1-1.67,0-15c-.85-.93-2-2-2.29-2.27v-.18h4.92L216,167.84l0-11.89-2.43-1.66v-.18h6.17Zm60.16,0-2.13,1.65,0,17.5h-1.38l-11.73-15.1,0,13.24,2.52,1.68v.18h-6.26v-.18l2.1-1.67,0-15a30.21,30.21,0,0,0-2.29-2.27v-.18h4.93l10.48,13.73,0-11.89-2.44-1.66v-.18h6.18ZM175.46,163v-7.1l-2-1.56v-.18H181v.18l-2,1.57v15.85l2,1.55v.18h-7.49v-.16l2-1.58v-7.4h-8v7.4l2,1.58v.16h-7.5v-.18l2-1.55V155.86l-2-1.57v-.18h7.49v.18l-2,1.56V163Zm53-8.84h-6.66v.17l2,1.59,0,15.81-2,1.58v.18l7.5,0c6.12,0,10.09-4.28,10.08-10C239.42,157.38,234.41,154.1,228.47,154.11Zm.54,18.06a6.32,6.32,0,0,1-1.69-.08l0-16.69s0,0,.57,0c4.3,0,7.79,3,7.8,8.26C235.67,168.59,232.9,172.17,229,172.17Zm-41.95,1.27h-5v-.18l1.56-1.57,6.46-18H191l7.07,17.92,1.57,1.61v.18h-7.1v-.18l1.87-1.6-2.12-5.42H187l-1.91,5.38,1.93,1.64Zm4.72-8.46-2.26-5.74L187.47,165Zm-124.9,7.53c-3.14,0-5.23-3.78-5.23-8.76s2.09-8.66,5.23-8.66,5.22,3.68,5.22,8.66-2.09,8.76-5.22,8.76Zm0-18.79c-4.89,0-8.86,4.42-8.86,10s4,10.1,8.86,10.1,8.86-4.52,8.86-10.1-4-10-8.86-10Zm183.59,18.79c-3.14,0-5.23-3.78-5.23-8.76s2.09-8.66,5.23-8.66,5.22,3.68,5.22,8.66-2.09,8.76-5.22,8.76Zm0-18.79c-4.89,0-8.86,4.42-8.86,10s4,10.1,8.86,10.1,8.86-4.52,8.86-10.1-4-10-8.86-10ZM160,169.34l.18.19a7.06,7.06,0,0,1-6.82,4.22c-5.13,0-8.6-4.5-8.61-10.05s3.92-9.59,8.75-9.59h5.61v5.29h-.33c-.73-1.26-2.65-4-5.56-4.07a4.66,4.66,0,0,0-.89.08c-2.79.49-4.11,4-3.75,8.93.4,5.35,3.41,7.61,6.8,7.15a7.74,7.74,0,0,0,4.62-2.15Zm-26.66,1L132,168.7a13.42,13.42,0,0,0,1.46-4l2.46-1.94v-.28h-5.73v.28l2.18,1.91a9.37,9.37,0,0,1-1.14,3l-5-6.12,0,0c1.67-1.1,3.4-2.23,3.4-4.37s-1.82-3.57-4.32-3.56-4.58,1.71-4.57,4c0,1.35.71,2.78,2.51,5.09-2.11,1.37-4.64,3.09-4.63,6.16a5.15,5.15,0,0,0,5.48,5.17,7.59,7.59,0,0,0,5.93-2.74l1.83,2.2h4.75v-.34C135.83,172.91,134.76,172.11,133.35,170.37Zm-8.19-16c1.26,0,2,1.13,2,3a4.23,4.23,0,0,1-1.52,3.51c-1.61-2-2.3-3.36-2.3-4.53A1.81,1.81,0,0,1,125.16,154.33ZM125,172.16c-2.15,0-3.54-1.7-3.55-4.35,0-1.76.63-3,2.33-4.47l5.47,6.83A5.37,5.37,0,0,1,125,172.16Zm-27.16,1.27v-.17l2.16-1.62V155.42h-3.9l-2.41,2.93h-.2v-4.24H110v4.24h-.2l-2.4-2.93h-3.91v16.22l2.17,1.62v.17Zm-41.44-.22v.23h-7v-.23l1.83-1.62c0-.49-1.35-13.55-1.41-14.1-.26.61-4.86,10.88-5.28,11.82h-.42c-.18-.4-6-11.41-6-11.41l-1.54,13.57,2.3,1.74v.23H33.16v-.23l2-1.65c.09-1.13,1.71-15.36,1.71-15.36l-1.73-1.8v-.29H40l5.33,10c.51-1.09,2.65-5.89,4.42-9.95h4.87v.27L52.94,156c.08.9,1.63,15.18,1.67,15.61Z"/><path d="M182,134.19v5.62h-1v-4.5l-1.33.45-.31-.81h0l2-.75Zm4.87,0v.91h2.82l-2.12,4.67v0h1.05l2.27-5.09v-.53Zm11.89,3.51v-2h-1v2h-1.75l1.24-3.23v0l-.84-.31L195,137.94v.63h2.85v1.24h1v-1.24h.58v-.87Zm7.41-1.4,1.38-1.46h0v-.64h-3.65v.88h2.31l-1.57,1.65.24.57.09,0a1.78,1.78,0,0,1,.74-.16c.7,0,1.1.34,1.1,1s-.47,1-1.21,1a2.41,2.41,0,0,1-1.32-.37l-.09-.07-.4.78v0l.08,0a3.33,3.33,0,0,0,1.76.46c1.34,0,2.16-.71,2.16-1.86A1.6,1.6,0,0,0,206.21,136.3Zm-105.09-1.15v-.82H97.59v5.34h.89v-1.92h2.33v-.83H98.48v-1.77Zm6.43,4.52h-1.08l-1.1-1.61h-1.09v1.61h-.89v-5.34h1.83a1.87,1.87,0,0,1,2.12,1.88,1.71,1.71,0,0,1-1,1.63Zm-3.27-2.41h.86c.77,0,1.27-.41,1.27-1s-.46-1.07-1.24-1.07h-.89Zm10.06,2.41h-1l-.44-1.1h-2.42l-.45,1.1h-.95l0-.09,2.25-5.25h.65l0,0Zm-2.61-4-.89,2.14h1.78Zm8.4-1.31v3.74l-3.2-3.79h-.55v5.39h.88v-3.73l3.2,3.77v0H121v-5.4Zm7.42,4.21a2.19,2.19,0,0,1-1.26.35,1.81,1.81,0,0,1-2-1.89,1.83,1.83,0,0,1,2-1.89,2,2,0,0,1,1.24.37l.06.05.43-.73-.05,0a2.92,2.92,0,0,0-1.74-.5,2.74,2.74,0,1,0,0,5.47,2.93,2.93,0,0,0,1.74-.49l.05,0-.42-.72Zm3.57.32v-1.48h2.37v-.82h-2.37v-1.41h2.7v-.82h-3.6v5.34h3.61v-.81Z"/><path d="M170.17,140.16a.52.52,0,0,1-.52.52H143.31a.52.52,0,0,1,0-1h26.34A.52.52,0,0,1,170.17,140.16Zm-.52-5.72H143.31a.52.52,0,0,0-.51.52.5.5,0,0,0,.51.5h26.34a.51.51,0,0,0,.52-.5A.53.53,0,0,0,169.65,134.44Zm-29-9.24a.93.93,0,1,0-.93.92A.93.93,0,0,0,140.61,125.2Zm-1.4,2.15a.84.84,0,1,0,.84-.84A.85.85,0,0,0,139.21,127.35Zm1.2-3.47a.85.85,0,1,0-.85-.85A.85.85,0,0,0,140.41,123.88ZM154,119a.5.5,0,1,0,0-1,.5.5,0,1,0,0,1Zm-7,4.35a.84.84,0,0,0-.49,1.09.83.83,0,1,0,.49-1.09Zm-5.21-1a.79.79,0,0,0,.8-.79.8.8,0,1,0-1.6,0A.79.79,0,0,0,141.85,122.3Zm1.79-.89a.77.77,0,1,0-.76-.77A.77.77,0,0,0,143.64,121.41Zm1.88-.47a.73.73,0,1,0-.72-.73A.72.72,0,0,0,145.52,120.94Zm1.57,2a.86.86,0,1,0,0-1.72.86.86,0,1,0,0,1.72Zm.73-1.88a.83.83,0,1,0-.83-.83A.83.83,0,0,0,147.82,121.11Zm1.43-1.28a.79.79,0,1,0-.79-.79A.8.8,0,0,0,149.25,119.83Zm1.7-.58a.68.68,0,1,0-.68-.68A.68.68,0,0,0,151,119.25Zm1.64-.18a.61.61,0,1,0,0-1.22.61.61,0,1,0,0,1.22Zm21.66,6.13a.93.93,0,1,1-.93-.93A.93.93,0,0,1,174.25,125.2Zm-1.3,1.31a.84.84,0,1,0,.84.84A.84.84,0,0,0,173,126.51ZM171.74,123a.85.85,0,0,1,.85-.84.85.85,0,1,1-.85.84Zm-1.38-1.52a.79.79,0,0,1,.79-.8.8.8,0,0,1,.8.8.79.79,0,0,1-.8.79A.79.79,0,0,1,170.36,121.51Zm-1.77-.87a.77.77,0,1,1,.76.77A.77.77,0,0,1,168.59,120.64Zm-1.11.3a.73.73,0,0,0,0-1.45.73.73,0,1,0,0,1.45Zm-9-2.49A.51.51,0,1,0,159,118,.5.5,0,0,0,158.46,118.45Zm6.41,5.38a.83.83,0,0,0,.49,1.09.86.86,0,1,0-.49-1.09Zm.18-1.69a.87.87,0,0,0,1.73,0,.87.87,0,1,0-1.73,0Zm.14-1a.83.83,0,1,0-.83-.83A.83.83,0,0,0,165.19,121.11Zm-1.43-1.28a.8.8,0,0,0,.79-.79.79.79,0,0,0-1.58,0A.8.8,0,0,0,163.76,119.83Zm-1.7-.58a.68.68,0,1,0-.68-.68A.68.68,0,0,0,162.06,119.25Zm-1.64-.18a.61.61,0,1,0-.61-.62A.61.61,0,0,0,160.42,119.07Zm-3.92,2.62a.65.65,0,1,0-.65-.65A.65.65,0,0,0,156.5,121.69Zm0,1.78a.75.75,0,0,0,.75-.76.75.75,0,0,0-1.49,0A.75.75,0,0,0,156.5,123.47Zm0-3.36a.53.53,0,0,0,.53-.53.53.53,0,1,0-1.06,0A.53.53,0,0,0,156.5,120.11Zm2-3.54a2,2,0,1,1-2-2A2,2,0,0,1,158.49,116.57Zm15.27,12.86a1.21,1.21,0,0,0-1,.26c-.31.22-1.09,1-1.09,1,.08,1.07-.28,1.85-1.31,2l-.55.73c.18.08.51.46.3.46h-27.3c-.21,0,.12-.39.3-.47l-.54-.72c-1-.1-1.39-.88-1.31-2,0,0-.78-.76-1.09-1a1.21,1.21,0,0,0-1-.26.82.82,0,0,1,.78-.49,1.31,1.31,0,0,1,1.08.52l.86.9.33-.38c.12-.19.25-.75,0-1-.08-.07,0-.12,0-.12a.71.71,0,0,1,.6.36,2.14,2.14,0,0,1,.28.59.94.94,0,0,1,.68.26,1.3,1.3,0,0,1,.28,1,2.07,2.07,0,0,1,.5.54,1.09,1.09,0,0,1,0,.91c0,.07-.09.08-.13,0a.88.88,0,0,0-.75-.52c-.49,0-.67.1-.66.23a1.7,1.7,0,0,0,1.31.85,1.06,1.06,0,0,0,1-.52,1.36,1.36,0,0,0,.24-.83s-.59.08-.93-.7c-.26-.61-.09-1,.15-1.15s.8.09,1,.55c.38.75.08,1.14.08,1.14a1.43,1.43,0,0,0,1.72.47c1-.37.53-2.32.53-2.32s-.3-.09-.44,0-.19.45-.33.76-.28.58-.52.58-.43-.53-.46-1c-.42-.09-.76-.37-.62-1.17,0,0-.5-.55-.44-.91,0-.05.28-.17.69-.12a5.89,5.89,0,0,1,1,.27,1,1,0,0,0-.12-.46,7.23,7.23,0,0,1-.86-.79c-.17-.26-.38-.63-.2-.75a1.82,1.82,0,0,1,.76-.21.93.93,0,0,1,.42-.34h0a1,1,0,0,1,.54,0,1.77,1.77,0,0,1,.73-.3c.22,0,.29.4.33.7a7,7,0,0,1-.21,1.22,1,1,0,0,0,.18.44,4.21,4.21,0,0,1,.49-.92.84.84,0,0,1,.62-.35c.15,0,.38.6.34,1.1a1,1,0,0,1,.39,1.31c.19.3.33.9.18,1.11s-.55.06-1-.16-.55-.45-.72-.44-.37.25-.37.25.83,1.55,1.84,1.56a1.5,1.5,0,0,0,1.15-.36,1.22,1.22,0,0,0,.45-.78,1.28,1.28,0,0,1-.77-1.12.9.9,0,0,1,.68-1.08,1,1,0,0,1,1,.9,1.12,1.12,0,0,1-.43,1.21,1.45,1.45,0,0,0,1.6.95,2,2,0,0,0,1.33-.48,2.75,2.75,0,0,0,.69-1.79,1.16,1.16,0,0,0-.55-.13c-.2,0-.36.41-.67.66a1.7,1.7,0,0,1-1.1.54c-.18,0-.36-.84-.21-1.26a1.15,1.15,0,0,1-.12-1.42s-.24-.87,0-1.14c.06-.08.33-.14.78.09a7,7,0,0,1,1.09.79s.12-.34,0-.49a10.31,10.31,0,0,1-.62-1.21c-.1-.3-.21-.75.06-.8a2,2,0,0,1,1,.08,1.06,1.06,0,0,1,.61-.24h0a1.09,1.09,0,0,1,.61.24,2,2,0,0,1,1-.08c.27,0,.16.5.06.8a10.31,10.31,0,0,1-.62,1.21c-.09.15,0,.49,0,.49a7,7,0,0,1,1.09-.79c.45-.23.72-.17.78-.09.22.27,0,1.14,0,1.14a1.15,1.15,0,0,1-.12,1.42c.15.42,0,1.25-.22,1.26a1.7,1.7,0,0,1-1.09-.54c-.31-.25-.47-.62-.67-.66a1.12,1.12,0,0,0-.55.13,2.75,2.75,0,0,0,.69,1.79,2,2,0,0,0,1.33.48,1.45,1.45,0,0,0,1.6-.95,1.12,1.12,0,0,1-.43-1.21,1,1,0,0,1,1-.9.89.89,0,0,1,.68,1.08,1.3,1.3,0,0,1-.77,1.12,1.17,1.17,0,0,0,.45.78,1.5,1.5,0,0,0,1.15.36c1,0,1.84-1.56,1.84-1.56s-.2-.24-.37-.25-.42.27-.72.44-.87.28-1,.16,0-.81.18-1.11a1,1,0,0,1,.39-1.31c0-.5.19-1.07.34-1.1a.81.81,0,0,1,.61.35,4,4,0,0,1,.5.92,1,1,0,0,0,.18-.44,7,7,0,0,1-.21-1.22c0-.3.11-.73.33-.7a1.77,1.77,0,0,1,.73.3,1,1,0,0,1,.54,0h0a.93.93,0,0,1,.42.34,1.86,1.86,0,0,1,.76.21c.18.12,0,.49-.2.75a7.23,7.23,0,0,1-.86.79,1,1,0,0,0-.12.46,5.89,5.89,0,0,1,1-.27c.41,0,.68.07.69.12.06.36-.44.91-.44.91.14.8-.2,1.08-.62,1.17,0,.42-.31,1-.47,1s-.41-.36-.51-.58-.18-.68-.33-.76-.44,0-.44,0-.52,1.95.53,2.32a1.43,1.43,0,0,0,1.72-.47s-.3-.39.08-1.14c.23-.46.72-.72,1-.55s.41.54.14,1.15c-.33.78-.92.7-.92.7a1.36,1.36,0,0,0,.24.83,1.06,1.06,0,0,0,1,.52,1.7,1.7,0,0,0,1.31-.85c0-.13-.17-.24-.66-.23a.88.88,0,0,0-.75.52c0,.08-.1.07-.13,0a1.09,1.09,0,0,1,0-.91,2.26,2.26,0,0,1,.5-.54,1.34,1.34,0,0,1,.28-1,.94.94,0,0,1,.68-.26,1.84,1.84,0,0,1,.28-.59.71.71,0,0,1,.6-.36c.07,0,.12,0,0,.12-.26.21-.13.77,0,1l.33.38.86-.9a1.3,1.3,0,0,1,1.07-.52A.82.82,0,0,1,173.76,129.43Zm-25.42-1.13c-.14-.41-.43-.69-.64-.62s-.27.47-.13.88.42.68.63.61S148.47,128.71,148.34,128.3Zm8.56-1.14c0-.43-.18-.78-.41-.78s-.4.35-.4.78.18.79.4.79S156.9,127.59,156.9,127.16Zm7.8,1.92c.22.07.5-.21.64-.62s.08-.8-.13-.87-.5.2-.64.61S164.49,129,164.7,129.08Zm-12.09-8.65h.56a4.78,4.78,0,0,0,1.53-.23l.05,0a2.83,2.83,0,0,0,.87-.78h-.17a6.05,6.05,0,0,1-2.38.44h-.36c-1.21,0-2.86,0-3.81,1.45a3,3,0,0,0-.23,2.7,1,1,0,0,1,.52-.39,2.47,2.47,0,0,1,.26-2C150.21,120.46,151.6,120.45,152.61,120.43Zm11.66,3.64a3,3,0,0,0-.16-2.7c-.92-1.44-2.57-1.5-3.78-1.55H160a6,6,0,0,1-2.36-.49h-.17a2.94,2.94,0,0,0,.85.8l.05,0a4.61,4.61,0,0,0,1.53.26l.55,0c1,0,2.41.09,3.14,1.23a2.48,2.48,0,0,1,.21,2A1,1,0,0,1,164.27,124.07Zm-18.75-2a1.15,1.15,0,0,1,.19-.63,5.48,5.48,0,0,0-3.34,1.46c-1.23,1.19-1.47,3.08-.7,5.45l0,.1a1,1,0,0,1,.52-.49s0-.11-.09-.3a6.68,6.68,0,0,1-.27-1.91A3.73,3.73,0,0,1,145.52,122Zm25.22,6.12a.93.93,0,0,1,.5.5l0-.1c.83-2.36.63-4.25-.57-5.47a5.53,5.53,0,0,0-3.31-1.54,1.12,1.12,0,0,1,.18.64,3.72,3.72,0,0,1,3.57,3.77,6.74,6.74,0,0,1-.31,1.89C170.78,128,170.75,128.09,170.74,128.14Zm-1.28,8v3h-26v-3ZM146,137h-1.74v1.25H146Zm4.34.62.07,0-1.57-.74-1.56.74.07,0-.07,0,1.56.76,1.57-.76Zm2.88,0a.83.83,0,0,0-.83-.83.84.84,0,0,0-.84.83.85.85,0,0,0,.84.84A.84.84,0,0,0,153.25,137.59Zm5-.62h-3.48v1.25h3.48Zm3.15.62a.83.83,0,0,0-.83-.83.84.84,0,0,0-.84.83.85.85,0,0,0,.84.84A.84.84,0,0,0,161.37,137.59Zm4.23,0,.08,0-1.57-.74-1.57.74.07,0-.07,0,1.57.76,1.57-.76Zm3.08-.62h-1.74v1.25h1.74Z"/></svg>