<svg id="Calque_1" data-name="Calque 1" xmlns="http://www.w3.org/2000/svg" viewBox="0 0 313 313"><g id="path33"><path id="path5" d="M187.86,77h33.86c0,2.55,0,5.09,0,7.63a22.77,22.77,0,0,0-8.44,1.65,11.92,11.92,0,0,0-6.08,6.11q-20.58,48.39-41.15,96.8c-.24.53-.43,1.08-.7,1.59-4.91,0-9.82,0-14.73,0-2.17-4.31-4.3-8.63-6.49-12.93q-3.75,10.06-7.52,20.13H185.2a21.83,21.83,0,0,0,8.79-1.25c4.61-1.85,8.28-5.43,11.27-9.31A77.43,77.43,0,0,0,214,172c2.74,0,5.47,0,8.2,0q-7.77,16.61-15.62,33.18h-112c.91-2.37,1.78-4.76,2.75-7.11.06-.24.36-.18.54-.2a69.81,69.81,0,0,0,13.92-1.19,14.36,14.36,0,0,0,6.68-3,7,7,0,0,0,1.59-3.52q6.6-17.68,13.23-35.38-14-29.79-28-59.57a10.78,10.78,0,0,0-3.3-4.59c-3.23-2.42-7.42-2.72-11.31-2.88V79.21h39.31v8.54c-1.71.11-3.52.08-5.07.93a1.89,1.89,0,0,0-1,2.1c.24,1.36,1.31,2.33,1.86,3.56q8.29,17.86,16.61,35.75,4.19-11.67,8.36-23.32a4.65,4.65,0,0,0,.09-3.42,3.6,3.6,0,0,0-2-1.74,15.9,15.9,0,0,0-5-.78c.86-2.4,1.73-4.8,2.63-7.19.21-.13.49,0,.73-.06h39.89c-.92,2.41-1.83,4.83-2.74,7.24-3.2.15-6.5.23-9.51,1.48a7.49,7.49,0,0,0-3.49,2.74,17.63,17.63,0,0,0-1.29,3c-5.56,15.15-11.16,30.28-16.66,45.45,3.05,6.88,6.22,13.7,9.32,20.55q16.9-39.93,33.82-79.84c.76-1.6,2-3.06,2.09-4.9A3.57,3.57,0,0,0,196.41,86c-2.67-1.24-5.67-1.3-8.55-1.4Z"/><path id="path7" d="M208.35,220.27q5.34,5.53,10.61,11.11c0-3.45,0-6.91,0-10.36h1.83V235.8c-3.56-3.67-7.07-7.38-10.61-11.07,0,3.48,0,7,0,10.43h-1.83Z"/><path id="path9" d="M104.78,220.78a7.55,7.55,0,0,1,8.42,6.47,7.3,7.3,0,0,1-2.24,6.24,7.56,7.56,0,0,1-10.37-.14,7.2,7.2,0,0,1-2.18-5.43,7.57,7.57,0,0,1,6.37-7.14m0,1.81a5.58,5.58,0,0,0-4.46,4.65,5.72,5.72,0,0,0,3.65,6.2,5.55,5.55,0,0,0,6.23-1.82,5.81,5.81,0,0,0-.72-7.81A5.55,5.55,0,0,0,104.78,222.59Z"/><path id="path11" d="M133.09,221.54a4.47,4.47,0,0,1,6.45,1.4l-1.46.82a2.79,2.79,0,0,0-4.16-.54c-.5.36-.44,1-.39,1.57.14.71.9,1,1.46,1.35,1.44.76,3.17,1.19,4.18,2.57a4.33,4.33,0,0,1-.29,5.23,4.7,4.7,0,0,1-5.44,1.12,4.94,4.94,0,0,1-2.5-3.6c.61-.15,1.23-.28,1.85-.42a2.78,2.78,0,0,0,2.53,2.73,2.59,2.59,0,0,0,2.33-3.88c-1.19-1.62-3.49-1.64-4.87-3A3.42,3.42,0,0,1,133.09,221.54Z"/><path id="path13" d="M198.62,220.77a7.61,7.61,0,0,1,6.8,2.9,7.32,7.32,0,0,1-6.72,11.75,7.17,7.17,0,0,1-5.28-3,7.5,7.5,0,0,1-1-6.39,7.6,7.6,0,0,1,6.23-5.24m-.31,1.85a5.58,5.58,0,0,0-4.36,6.3,5.66,5.66,0,0,0,5.58,4.84,5.51,5.51,0,0,0,4.61-2.54,5.74,5.74,0,0,0-.84-7.24A5.48,5.48,0,0,0,198.31,222.62Z"/><path id="path15" d="M92.23,221H94c0,4.18,0,8.36,0,12.54h4.35v1.62H92.23Z"/><path id="path17" d="M114.61,221h1.86c0,2.79,0,5.57,0,8.36a5.27,5.27,0,0,0,1,3.51,3.33,3.33,0,0,0,5-.59,5.11,5.11,0,0,0,.61-2.74q0-4.26,0-8.54H125c0,2.91,0,5.81,0,8.72a6,6,0,0,1-1.07,3.77,5.28,5.28,0,0,1-8,.28,5.41,5.41,0,0,1-1.34-3.72Q114.6,225.56,114.61,221Z"/><path id="path19" d="M127.32,221h1.83v14.16h-1.83Z"/><path id="path21" d="M145.65,221h2q2.1,5.16,4.17,10.34c1.38-3.44,2.79-6.86,4.14-10.31.69-.06,1.38,0,2.07,0q-3.08,7.52-6.19,15C149.75,231,147.71,226,145.65,221Z"/><path id="path23" d="M158.89,221h1.83c0,2.74,0,5.49,0,8.23,0,1.3.14,2.78,1.14,3.74a3.5,3.5,0,0,0,4.2.17,3.41,3.41,0,0,0,1.26-2.19,28.94,28.94,0,0,0,.17-4.37c0-1.86,0-3.72,0-5.58h1.76c0,2.58,0,5.16,0,7.73a7.55,7.55,0,0,1-1,4.69,5.2,5.2,0,0,1-9.41-3.2C158.88,227.16,158.89,224.09,158.89,221Z"/><path id="path25" d="M171.58,221h1.91c0,4.72,0,9.44,0,14.16h-1.92C171.56,230.45,171.58,225.74,171.58,221Z"/><path id="path27" d="M174.63,221c5.71,0,11.41,0,17.12,0v1.7h-3.28c0,4.15,0,8.3,0,12.46h-1.91c0-4.16,0-8.31,0-12.46h-6.72v12.46h-1.75c0-4.16,0-8.31,0-12.46h-3.44Z"/></g></svg>