<svg id="Calque_1" data-name="Calque 1" xmlns="http://www.w3.org/2000/svg" viewBox="0 0 313 313"><defs><style>.cls-1{fill-rule:evenodd;}</style></defs><path class="cls-1" d="M76.63,80.46c-1.27.19-2.48,4.85-4.93,7.28-1.79,1.75-4,1.65-5.21,3.81-.45.81-.3,2.19-.81,3.52-1,2.65-4.52,2.89-4.52,5.78,0,3.12,2.93,3.71,5.48,5.93,2,1.78,2.19,3,4.6,3.88,2.05.7,5.12-1.59,7.87-.77,2.26.68,4.43,1.16,4.94,3.48.45,2.15,0,5.47-2.77,5.09a29.88,29.88,0,0,0-9.86-.94c-6,.68-12.73,2.62-13.4,9.25-.37,3.7,4.22,8.07,8.64,7.19,3.06-.61,1.62-4.22,3.28-6,2.18-2.25,14.56,7.84,26.07,7.84,4.84,0,8.45-1.22,12-5,.34-.29.74-.9,1.26-.94a4.56,4.56,0,0,1,1.62.72c9.26,7.45,16.27,22.39,50.33,22.56,4.79,0,10.24,2.32,14.7,6.38,4,3.67,6.29,9.39,8.55,15.19,3.41,8.7,9.52,17.17,18.78,26.58.5.51,8.13,6.44,8.74,6.88a3.77,3.77,0,0,1,.46,2.15c-.23,5.65-1.05,22.07,11.19,22.81,3,.15,2.21-2,2.21-3.4,0-2.86-.52-5.7,1-8.63,2.06-4-4.37-5.88-4.18-14.59.13-6.49-5.33-5.39-8.09-10.33-1.59-2.87-3-4.39-2.91-7.89.63-19.73-4.2-32.69-6.6-35.88-1.88-2.4-3.43-3.35-1.71-4.47,10.22-6.75,12.53-13,12.53-13,5.44-12.77,10.32-24.44,17.06-29.57a49.85,49.85,0,0,1,7-4.68c6.29-3,9.6-4.76,11.43-6.54,2.88-2.81,5.17-8.69,2.4-12.25-3.45-4.39-9.4-.9-12,.66-18.79,11.14-21.55,30.81-28.06,42.1-5.19,9-13.63,15.65-21.18,16.19a37.59,37.59,0,0,1-17.82-3.39,89.76,89.76,0,0,1-24.76-16.31c-4-3.06-34.76-33.3-59.71-34.53,0,0-3.1-6.2-3.88-6.3-1.83-.24-3.69,3.7-5,4.16s-3.38-4.27-4.65-4.06Z"/></svg>