<svg id="Calque_1" data-name="Calque 1" xmlns="http://www.w3.org/2000/svg" viewBox="0 0 313 313"><defs><style>.cls-1{fill:#fff;}.cls-1,.cls-2{fill-rule:evenodd;}</style></defs><path class="cls-1" d="M230,162.16a75,75,0,0,0,3.81-18c.24-4.42-.36-10.6-4.52-15-3.33-3.51-8.41-5.28-15.1-5.28-8.45,0-15.27,3-20.25,8.88l-1.32,1.55-.87-1.83a10.68,10.68,0,0,0-2-3c-3.41-3.85-9.12-5.8-17-5.8-7.2,0-13.7,2.15-18.32,6.07l-1.16,1-.81-1.31c-2.18-3.54-7.6-5.83-13.82-5.83-9,0-18,1.21-23.43,10l-2.26,3.63-.17-4.27c-.14-3.3-.44-4.68-2-6.3-1.69-1.79-4.53-2.66-8.69-2.66-6.1,0-10.69,2.66-14,8.14-5.14,8.21-17.55,35.19-17.28,48,.18,8.33,5.73,13.42,14.86,13.63,7.52.19,13.5-1.75,17.3-5.58l1-1,.93,1c3.42,3.71,8.61,5.75,14.62,5.75,7.65,0,14.2-2.38,18-6.53l1-1.13,1,1.18c3.52,4.33,9,6.59,15.73,6.57a28.87,28.87,0,0,0,22.62-11.13l1.46-1.84.81,2.2c3.42,9.3,12.68,10.68,17.91,10.69,17.74,0,25.4-12.18,32-31.81Z"/><path class="cls-2" d="M234.41,122.2a4.55,4.55,0,0,1,4.55-4.56h0a4.55,4.55,0,0,1,4.57,4.54v0a4.55,4.55,0,0,1-4.55,4.56h0a4.55,4.55,0,0,1-4.56-4.54Zm4.57-3.66a3.67,3.67,0,1,1-3.66,3.67h0a3.65,3.65,0,0,1,3.63-3.67Zm1.77,5.09.55,1h-1.18l-.38-.77a4,4,0,0,0-.65-.93c-.18-.19-.35-.24-.77-.24h-.18v1.94h-1v-4.73h2.35c1,0,1.49.57,1.49,1.32a1.31,1.31,0,0,1-1.28,1.32v0c.4.14.54.27,1,1.1Zm-2.61-3v1.3h1c.66,0,.88-.33.87-.66s-.34-.65-1-.65Zm-45.26,11.28c4.6-5.45,11.41-9.35,21.25-9.35,17.05,0,21.51,11.14,21,21.67a76.37,76.37,0,0,1-3.88,18.38c-6.74,20-14.84,32.7-33.26,32.7-8.41,0-16.11-3.28-19.14-11.55a30.2,30.2,0,0,1-23.65,11.63c-7.38,0-13.11-2.57-16.76-7-4.33,4.77-11.65,7-18.93,7-6.54,0-12-2.28-15.59-6.17-4,4-10.27,6.16-18.26,6-10.24-.25-16-6.39-16.15-14.92-.28-13.2,12.3-40.45,17.48-48.73,3.57-5.87,8.54-8.75,15.14-8.75,3.62,0,7.34.63,9.64,3.07,1.89,2,2.2,3.77,2.34,7.14,5.8-9.35,15.57-10.62,24.54-10.61,6.86,0,12.56,2.56,15,6.45,4.6-3.91,11.22-6.39,19.16-6.39,8.14,0,14.2,2,18,6.25a12.16,12.16,0,0,1,2.2,3.28Zm-89.72,46c.3-3.19-2.09-6.64-11.62-5,.94-2.13,2.35-5,3.95-8.34h0c5.12-10.58,12.21-25.2,12.34-30.92.07-2.82-1.07-5.17-5.64-5.17-4.83,0-7.86,2-10.35,6.1-5.38,8.6-16.81,34.54-16.57,45.75.13,6.41,5.1,8.94,10.62,9.07,7.61.17,16.37-2,17.27-11.51Zm19.42-13.79c-.63,1.71-1.83,5.29-2.79,9.07a31.31,31.31,0,0,1,9.49-1.23c4.58.11,7.51,2,7.51,5.8,0,9.18-10.15,11.88-17.18,11.88-7.74,0-14.53-4.4-14.53-12.85,0-9.91,5.37-24.94,10.42-34.95,6.18-12.29,12.51-13.93,23.4-13.93,4.79,0,10.31,2.05,10.31,6.57,0,6.27-5.3,8.66-10.57,9a72.55,72.55,0,0,1-7.77.1,44,44,0,0,0-3.62,7.43c9.75-1.37,13.88.84,12.24,6.47-2.23,7.62-8.83,8.13-16.91,6.68Zm42.29-20.23c1.29-1.8,3-3.47,5.65-3.47,3.23,0,2.92,1.71,2.15,3.9-2.18,6.22,4.4,6.38,6,6.26,5.74-.45,8.91-4.16,9.69-10.48,1.06-8.61-6.19-11.92-15.38-11.92-15.33,0-21.34,9.37-27.08,22.77-2.69,6.3-6.09,17.05-6.09,23.9,0,9.62,5.85,14.84,15.29,14.84,13.77,0,23.51-11,26.29-24.68.85-4.21,1.91-12.11-8.79-11.67-5.43.22-8.71,1.42-10.43,7-1.78,5.72,4.67,5.87,4.67,5.87-1.3,5.91-5.1,9.5-8.48,9.5-2.12,0-4-.92-3.4-5.39,1-6.53,7.08-22.43,9.9-26.4Zm63.52,7.84a92.94,92.94,0,0,1-9.22,24.72C212.71,188,204.88,189.65,198,189.56s-14.55-2.6-14.61-13.16c0-7.58,3.23-18.28,6-25.28,4.84-12.71,9.78-23.08,25.41-22.89,18.22.21,15,16.42,13.56,23.47Zm-22.86,20.68c2.53-4.29,9.67-23.76,9.86-28.63.06-1.41-.18-3.07-2.46-3.09a4.28,4.28,0,0,0-4.16,2.17c-2.75,3.58-10.81,25.6-10.68,30a2.77,2.77,0,0,0,2.87,3c2.24,0,3.47-1.54,4.57-3.4Z"/></svg>