<svg id="Calque_1" data-name="Calque 1" xmlns="http://www.w3.org/2000/svg" viewBox="0 0 313 313"><defs><style>.cls-1{fill:#231f20;}</style></defs><path class="cls-1" d="M156.5,100.06h0a56.44,56.44,0,1,0,56.44,56.44A56.44,56.44,0,0,0,156.5,100.06Zm25.88,81.4a3.51,3.51,0,0,1-4.84,1.17c-13.25-8.1-29.93-9.93-49.58-5.44a3.52,3.52,0,0,1-1.56-6.86c21.5-4.91,39.94-2.8,54.82,6.29A3.52,3.52,0,0,1,182.38,181.46Zm6.91-15.36h0a4.39,4.39,0,0,1-6,1.46c-15.17-9.33-38.3-12-56.24-6.58a4.4,4.4,0,0,1-2.56-8.42c20.5-6.22,46-3.21,63.4,7.5A4.4,4.4,0,0,1,189.29,166.1Zm.6-16h0c-18.19-10.8-48.2-11.8-65.57-6.52a5.28,5.28,0,0,1-3.06-10.11c19.94-6.05,53.08-4.88,74,7.55a5.28,5.28,0,1,1-5.38,9.08Z"/></svg>