<svg id="Calque_1" data-name="Calque 1" xmlns="http://www.w3.org/2000/svg" viewBox="0 0 313 313"><defs><style>.cls-1{fill-rule:evenodd;}</style></defs><path class="cls-1" d="M249.89,205.76s16.4.29,24.85-.7v5.53s-.81-3.11-7.14-2.42l-10.5,1.17V223h16.65v3H257v15.59l7.83.73c1.5.11,7.43,1,10.25-3.33l-.48,3s-.07,2.67-3.55,2.67h-22s2-1.5,2-5.6V216.74a43.9,43.9,0,0,0-1.17-11Z"/><path class="cls-1" d="M211.8,205.39H220v29.86s-.08,8.05,9.22,8.05,11-7.86,11-12.69v-18.7s.3-4.51-2.48-6.52h6.66a26,26,0,0,0-.63,5.75v22.72s1.32,12.23-15.07,12.23-15.48-9.34-15.48-12.45V212.05a16.57,16.57,0,0,0-1.39-6.66Z"/><path class="cls-1" d="M115.11,205.14h8.09l20.71,27.92,1.76-22.73a4.83,4.83,0,0,0-2.49-5.09h5.34v39.09h-4.24l-22.84-30.12-1.5,23.61s-.77,4.24,2,6.51h-5.27V210.59a12.75,12.75,0,0,0-1.57-5.45Z"/><path class="cls-1" d="M155.88,205.35h8.41A80.05,80.05,0,0,0,163.12,219v19s-.07,5.38.41,6.59h-7a63.76,63.76,0,0,0,.51-7.72V220.8s.51-9.19-1.13-15.45Z"/><path class="cls-1" d="M101.72,205.35h8.41A80.05,80.05,0,0,0,109,219v19s-.07,5.38.44,6.59h-7.1a59.21,59.21,0,0,0,.55-7.72V220.8s.51-9.19-1.13-15.45Z"/><path class="cls-1" d="M74.86,205.65h7.83S82,218.46,82,222.48v18.85a36.37,36.37,0,0,0,8.56,1c4.8,0,6.7-1.53,8.31-4.13,0,0-.18,4-2.09,6.26H75.08a71.54,71.54,0,0,0,.8-10.51V216.48a44.38,44.38,0,0,0-1-10.83Z"/><path class="cls-1" d="M58.42,204.4s7,.11,11,1.87v4.61s-3-3.55-10.65-3.55S43.79,212.82,43.79,225s6.84,18.08,15,18.08,11.42-5.79,11.42-5.79.92,5.57-4,7.36a54.47,54.47,0,0,1-7.28.88c-2.57,0-21.45,1.24-21.45-20.31S55,204.4,58.42,204.4Z"/><polygon class="cls-1" points="38.08 256.48 275.51 256.48 275.51 257.94 38.08 257.94 38.08 256.48 38.08 256.48"/><polygon class="cls-1" points="38.08 194.34 275.51 194.34 275.51 195.84 38.08 195.84 38.08 194.34 38.08 194.34"/><path class="cls-1" d="M127,170V74.27c0-6.7,0-19.25,30.52-19.21,30.12,0,30.12,11.56,30.12,19.5v43.77H160.16V65.78s.33-3-2.56-3-2.89,2.16-2.89,3.48V173.37s-.33,3.95,2.27,3.95c0,0,3.18.26,3.18-3.69v-50.4h27.48v44.5c0,10.14-5.12,18-30.74,18-19.8,0-29.9-4.46-29.9-15.73Z"/><path class="cls-1" d="M193.24,245A20.55,20.55,0,0,0,208.36,225c0-11.31-5.24-20.57-20-20.57s-20,9.26-20,20.57c0,11,4.69,20,18.74,20.53,6.26,1.83,8.89,4.79,12.19,6.29a17,17,0,0,0,7.57,1.39v-1.83c-3.66,0-5-2.45-7.57-4.54C197.82,245.65,195.25,245.1,193.24,245Zm-18.33-19.76c0-9.88,3.77-18,13.61-18s13.58,8.09,13.58,18-4.28,17.93-13.58,17.93S174.91,235.07,174.91,225.19Z"/></svg>