<svg id="Calque_1" data-name="Calque 1" xmlns="http://www.w3.org/2000/svg" viewBox="0 0 313 313"><path d="M247.51,157.14a17.72,17.72,0,0,1,13.81-13.81c.07,0,.11,0,.18-.11a.28.28,0,0,0,.08-.19.25.25,0,0,0-.08-.18.5.5,0,0,0-.18-.11,17.77,17.77,0,0,1-9-4.83,17.52,17.52,0,0,1-4.83-9,.21.21,0,0,0-.11-.19.33.33,0,0,0-.19-.07.33.33,0,0,0-.18.07.56.56,0,0,0-.11.19,17.72,17.72,0,0,1-13.81,13.81c-.07,0-.11,0-.19.11a.3.3,0,0,0-.07.18.33.33,0,0,0,.07.19,1.06,1.06,0,0,0,.19.11,17.81,17.81,0,0,1,9,4.83,17.44,17.44,0,0,1,4.83,9,.18.18,0,0,0,.11.18.27.27,0,0,0,.18.08.28.28,0,0,0,.19-.08C247.47,157.25,247.51,157.21,247.51,157.14Z"/><path d="M242.24,162.7a15.53,15.53,0,0,0-26.43-11.06,15.57,15.57,0,0,0-7.94-4.19,15.52,15.52,0,0,0-18.48,15.22V183.6a.59.59,0,0,0,.18.41.61.61,0,0,0,.41.19h7.61A.61.61,0,0,0,198,184a.59.59,0,0,0,.18-.41V162.19a6.47,6.47,0,0,1,6.5-6.28c3.45,0,6.72,2.79,6.72,6.24v21.41a.59.59,0,0,0,.18.41.61.61,0,0,0,.41.19h7.68a.66.66,0,0,0,.6-.6V162.15c0-3.45,3.3-6.24,6.75-6.24a6.32,6.32,0,0,1,4.49,1.82,6.4,6.4,0,0,1,2,4.46V183.6a.66.66,0,0,0,.59.6h7.61a.66.66,0,0,0,.6-.6Z"/><path d="M168.94,147.23a19.07,19.07,0,0,0-8.21,1.89,18.63,18.63,0,0,0-10,13,19.2,19.2,0,0,0,.26,8.43,18.56,18.56,0,0,0,27.21,11.24v1.9a.59.59,0,0,0,.18.4.56.56,0,0,0,.41.19h8.09a.56.56,0,0,0,.41-.19.6.6,0,0,0,.19-.4V165.75a18.67,18.67,0,0,0-5.42-13.1,18.38,18.38,0,0,0-13.1-5.42Zm0,28.24a9.64,9.64,0,0,1-5.42-1.63,9.87,9.87,0,0,1-3.6-4.38,9.73,9.73,0,0,1-.56-5.64,9.54,9.54,0,0,1,2.67-5,9.77,9.77,0,0,1,15,1.49,9.71,9.71,0,0,1-1.22,12.28,9.85,9.85,0,0,1-6.9,2.86Z"/><path d="M149.38,171.65l-5.79-2.19a1.26,1.26,0,0,0-1,0,1.3,1.3,0,0,0-.78.71,9.63,9.63,0,0,1-3.6,3.89,9.88,9.88,0,0,1-5.09,1.45,8.76,8.76,0,0,1-3.52-.63,10,10,0,0,1-1.38-.71l-.11-.11s0-.11,0-.15,0-.11,0-.14l.11-.12,14.63-8.38,4.23-2.45a5.72,5.72,0,0,0,1.48-1.3,4.55,4.55,0,0,0,.86-1.75,6.12,6.12,0,0,0,.11-2,5.61,5.61,0,0,0-.67-1.86,16.46,16.46,0,0,0-2.34-3,18.53,18.53,0,0,0-21.79-3.71,18.53,18.53,0,0,0,6.13,34.93,18.76,18.76,0,0,0,11.39-2.27,18.52,18.52,0,0,0,7.8-8.61,1.09,1.09,0,0,0,.11-.48,1.93,1.93,0,0,0-.08-.48.82.82,0,0,0-.26-.41.8.8,0,0,0-.4-.3Zm-26-5.86a9.71,9.71,0,0,1,1.3-4.87,9.58,9.58,0,0,1,3.56-3.56,10.22,10.22,0,0,1,4.86-1.34,9.89,9.89,0,0,1,4.9,1.3l.11.11a.23.23,0,0,1,0,.15.21.21,0,0,1,0,.15l-.11.11L123.77,166s-.08,0-.15,0a.21.21,0,0,1-.15,0l-.11-.11Z"/><path d="M118,149.64a18.3,18.3,0,0,0-9.13-2.41,18.56,18.56,0,0,0-18.52,18.52v17.93a.6.6,0,0,0,.19.4.56.56,0,0,0,.4.19h8.1a.66.66,0,0,0,.59-.59V165.75a9.26,9.26,0,0,1,13.14-8.39.86.86,0,0,0,.59,0,.76.76,0,0,0,.49-.34l4.41-6.16a1.21,1.21,0,0,0,.15-.33.58.58,0,0,0,0-.37,1.26,1.26,0,0,0-.15-.34.5.5,0,0,0-.26-.22Z"/><path d="M87.87,128.71H79.78a.56.56,0,0,0-.22,0l-.19.11s-.11.12-.11.19a.56.56,0,0,0,0,.22v20.42A18.53,18.53,0,0,0,53.91,175a18.52,18.52,0,0,0,34.56-9.28V129.26a.43.43,0,0,0,0-.22,1.06,1.06,0,0,0-.11-.19s-.11-.11-.19-.11A.64.64,0,0,0,87.87,128.71ZM70,175.47a9.64,9.64,0,0,1-5.42-1.63,9.87,9.87,0,0,1-3.6-4.38,9.71,9.71,0,0,1-.56-5.6,9.5,9.5,0,0,1,2.67-5A9.74,9.74,0,1,1,70,175.47Z"/></svg>