<svg id="Calque_1" data-name="Calque 1" xmlns="http://www.w3.org/2000/svg" viewBox="0 0 313 313"><path d="M155.41,193.31v-.12a.57.57,0,0,1,.51-.21c.86,0,1.7,0,2.57,0a.66.66,0,0,1,.51.21v.12Z"/><path d="M159,193.19c-1.2,0-2.4,0-3.59,0-1.65-.09-3.29-.15-4.93-.27a85.44,85.44,0,0,1-12.95-2,87.65,87.65,0,0,1-38.8-20.2c-1-.93-2-1.89-3-2.84a2.07,2.07,0,0,1-.56-.81,1.12,1.12,0,0,1,.2-1.2,1.09,1.09,0,0,1,1.2-.27,6.3,6.3,0,0,1,.78.39A116.24,116.24,0,0,0,132,180.36a123.41,123.41,0,0,0,12.47,2.24,114.24,114.24,0,0,0,18.11.81,95.77,95.77,0,0,0,9.72-.81,117.21,117.21,0,0,0,22.18-5,104.21,104.21,0,0,0,11.12-4.36,2.48,2.48,0,0,1,1.79-.24,1.85,1.85,0,0,1,1.35,2.24,2.08,2.08,0,0,1-.15.39,3.29,3.29,0,0,1-1,1.14,66.28,66.28,0,0,1-11.06,7,87.25,87.25,0,0,1-23.4,7.92A102.47,102.47,0,0,1,159,193.19Z"/><path d="M114.72,132.59c.75-.45,1.53-.92,2.34-1.34a13.3,13.3,0,0,1,6.78-1.5,6,6,0,0,1,6.13,6c0,.33,0,.66,0,1v15.48c0,1.35-.18,1.53-1.52,1.53h-3.65a5.78,5.78,0,0,1-.72,0,.83.83,0,0,1-.72-.69,5.49,5.49,0,0,1-.06-1V138.21a5,5,0,0,0-.18-1.64,2.2,2.2,0,0,0-2-1.64,10.5,10.5,0,0,0-5.14,1,.49.49,0,0,0-.36.54v15.72a4.25,4.25,0,0,1-.06.87.72.72,0,0,1-.75.72h0c-.44,0-.89,0-1.37,0h-3.17c-1.11,0-1.34-.27-1.34-1.38V138.27a6.79,6.79,0,0,0-.15-1.55,2.25,2.25,0,0,0-2.1-1.79,10.5,10.5,0,0,0-5.23,1,.48.48,0,0,0-.33.57v15.93c0,1.11-.24,1.35-1.34,1.35h-4c-1,0-1.31-.3-1.31-1.32V131.73a3,3,0,0,1,.09-.72.87.87,0,0,1,.83-.57h3.74a1.08,1.08,0,0,1,1,.84c.15.42.24.81.39,1.25.29,0,.47-.21.68-.33a15.74,15.74,0,0,1,5.32-2.24,11.31,11.31,0,0,1,4.49,0,5.65,5.65,0,0,1,3.47,2.33,2.18,2.18,0,0,0,.17.21S114.69,132.53,114.72,132.59Z"/><path d="M176.69,147.48c.18-.6.36-1.17.54-1.76l4.13-13.87.18-.54a1.2,1.2,0,0,1,1.19-.87h4.54c1.14,0,1.38.33,1,1.41l-1.79,4.75c-2,5.2-4,10.43-6,15.63-.06.18-.15.36-.21.54a1.46,1.46,0,0,1-1.49,1c-1.32,0-2.64,0-3.95,0a1.68,1.68,0,0,1-1.79-1.23c-.75-2-1.53-4-2.28-5.95-1.79-4.69-3.61-9.38-5.41-14.11a5.11,5.11,0,0,1-.39-1.16c-.08-.6.12-.9.72-.9,1.71,0,3.41,0,5.08,0,.72,0,1,.48,1.23,1.11.33,1.13.66,2.3,1,3.43,1.22,4.16,2.42,8.35,3.64,12.5C176.6,147.48,176.63,147.48,176.69,147.48Z"/><path d="M70.54,133.73a.89.89,0,0,0,.51-.36,19,19,0,0,1,1.71-1.52,7.91,7.91,0,0,1,5.44-1.65c.77,0,1,.27,1.1,1,.06,1,0,2.06,0,3.08a5.55,5.55,0,0,1-.06,1.22c-.12.54-.33.75-.86.81a8.42,8.42,0,0,1-1.23,0,14.28,14.28,0,0,0-5.83.84c-.42.15-.42.45-.42.77v14.35a6.78,6.78,0,0,1,0,.78.72.72,0,0,1-.72.69,4.64,4.64,0,0,1-.65,0H65.64a4.86,4.86,0,0,1-.66,0,.79.79,0,0,1-.71-.75,5.78,5.78,0,0,1,0-.72V131.94c0-1.38.15-1.53,1.52-1.53h2.87a1.19,1.19,0,0,1,1.35,1C70.18,132.17,70.36,132.92,70.54,133.73Z"/><path d="M210.38,164a25.39,25.39,0,0,1,5.83.69,9.71,9.71,0,0,1,1.56.57,2,2,0,0,1,1.22,1.64,12.22,12.22,0,0,1,.09,2.57,33,33,0,0,1-4.6,14.44,20.16,20.16,0,0,1-3.47,4.27,2.48,2.48,0,0,1-1,.6.7.7,0,0,1-1-.72,3.28,3.28,0,0,1,.21-.89c1-2.81,2.06-5.59,2.87-8.49a30.83,30.83,0,0,0,1-4.84,9,9,0,0,0,0-1.8,2.34,2.34,0,0,0-1.67-2.18,11.64,11.64,0,0,0-2.87-.54,47,47,0,0,0-8.22.36l-3.62.45a.9.9,0,0,1-1-.36,1,1,0,0,1,.09-1.08,3,3,0,0,1,.9-.83,20.44,20.44,0,0,1,7.32-3.17A35.66,35.66,0,0,1,210.38,164Z"/><path d="M197.86,142.1v10.76a.86.86,0,0,1-.93.9c-1.61,0-3.2,0-4.81,0a.84.84,0,0,1-.93-.87,3.63,3.63,0,0,1,0-.57V131.64c0-.93.27-1.2,1.2-1.2h4.3c.93,0,1.2.27,1.2,1.2V142.1Z"/><path d="M82.2,142V131.43c0-.72.3-1,1-1,1.55,0,3.11,0,4.66,0,.69,0,.9.21,1,.9a6.78,6.78,0,0,1,0,.78V152c0,.33,0,.66-.06,1a.75.75,0,0,1-.72.69,2.91,2.91,0,0,1-.51,0H83.43a2,2,0,0,1-.42,0,.87.87,0,0,1-.81-.78,5.78,5.78,0,0,1,0-.72C82.2,148.86,82.2,145.45,82.2,142Z"/><path d="M85.67,119.71a3.67,3.67,0,0,1,1.4.21,3.39,3.39,0,0,1,2.31,3.77,3.33,3.33,0,0,1-2.84,3,5.66,5.66,0,0,1-2,0A3.34,3.34,0,0,1,81.69,123C81.87,120.88,83.28,119.71,85.67,119.71Z"/><path d="M194.54,119.71a3.59,3.59,0,0,1,1.76.3,3.12,3.12,0,0,1,2,2.78c.24,2.72-1.58,4.09-4,4a5.58,5.58,0,0,1-1-.12,3.54,3.54,0,0,1,.57-7A2.22,2.22,0,0,1,194.54,119.71Z"/><path d="M59.81,139.59a13.84,13.84,0,0,0-1.16-4.49,8.66,8.66,0,0,0-6-5.11,10.57,10.57,0,0,0-8.94,2,2.63,2.63,0,0,1-.63.44c-.06,0-.12-.06-.12-.09-.09-.29-.15-.59-.24-.89-.24-.75-.54-1-1.34-1s-1.83,0-2.72,0a2.09,2.09,0,0,0-1.8.6c0,10.46,0,21,0,31.39a1.68,1.68,0,0,0,1.68.71c1.07,0,2.15,0,3.23,0,1.88,0,1.88,0,1.88-1.85v-8.52c0-.21-.09-.45.12-.63a10,10,0,0,0,5.2,2.07,8.8,8.8,0,0,0,7-2.19,11,11,0,0,0,3.1-5A18.4,18.4,0,0,0,59.81,139.59Zm-7.14,6.19a4.63,4.63,0,0,1-1.38,2.39,4.21,4.21,0,0,1-2.75,1,8.25,8.25,0,0,1-4.36-1,.85.85,0,0,1-.51-.84V142c0-1.79,0-3.59,0-5.38a.91.91,0,0,1,.6-.93,8.11,8.11,0,0,1,5.14-.77,3.63,3.63,0,0,1,2.84,2.15,8.28,8.28,0,0,1,.78,3A14.9,14.9,0,0,1,52.67,145.78Z"/><path d="M276.09,140.25v.12a.43.43,0,0,1-.12-.45v-.24a0,0,0,0,1,0,0h0v-.3H276s0,0,0-.06a10.89,10.89,0,0,0-8-9.24,14.59,14.59,0,0,0-5.7-.21,9.8,9.8,0,0,0-8.34,6.58,15.94,15.94,0,0,0,0,11.3,9.51,9.51,0,0,0,7,6.28,15,15,0,0,0,5.62.3c6.28-.75,8.88-5.5,9.3-9.63h0v-.42c0-.18-.06-.33.12-.45v.06a.23.23,0,0,1,.06-.12v-3.43S276.09,140.28,276.09,140.25Zm-7.18,5.68a5.55,5.55,0,0,1-.84,1.73,3.83,3.83,0,0,1-2.83,1.61,5.46,5.46,0,0,1-1.71-.06,3.84,3.84,0,0,1-2.81-2.24,8.47,8.47,0,0,1-.81-3,16.31,16.31,0,0,1,.24-5.26,6.66,6.66,0,0,1,.81-2,3.86,3.86,0,0,1,3.05-1.85,5.7,5.7,0,0,1,1.7,0,3.83,3.83,0,0,1,2.72,2.13,8.76,8.76,0,0,1,.87,3.38,14.37,14.37,0,0,1,0,1.61A10.94,10.94,0,0,1,268.91,145.93Z"/><path d="M223.68,119.92h-4.15c-1.14,0-1.35.21-1.35,1.34V131c0,.21.09.42-.06.63-.27,0-.41-.21-.62-.33a9.94,9.94,0,0,0-9.66-.63,9.4,9.4,0,0,0-4.66,5.32,16.94,16.94,0,0,0-1.05,6.91,14.16,14.16,0,0,0,1.5,6.36,8.58,8.58,0,0,0,5.17,4.58,9.66,9.66,0,0,0,9.08-1.56c.21-.12.33-.33.6-.39a4.27,4.27,0,0,1,.33,1,1.06,1.06,0,0,0,1.05.81h.72c1.07,0,2.12,0,3.16,0,.84,0,1.08-.27,1.11-1.14V121.05C224.82,120.13,224.58,119.92,223.68,119.92Zm-5.47,22v5.44a.79.79,0,0,1-.47.84,7.43,7.43,0,0,1-4.7.89,4.1,4.1,0,0,1-3.2-2.21,8.4,8.4,0,0,1-.83-3,15.41,15.41,0,0,1,.36-5.62,6.3,6.3,0,0,1,.59-1.46,3.86,3.86,0,0,1,3.14-2,9.12,9.12,0,0,1,4.61.8.83.83,0,0,1,.53.87c-.06,1.85,0,3.65,0,5.47Z"/><path d="M140.91,144a19.85,19.85,0,0,0,6.79.09,11.08,11.08,0,0,0,3.73-1.19,5.57,5.57,0,0,0,2.75-3.35,7.12,7.12,0,0,0-4.48-9,13.34,13.34,0,0,0-5.95-.57,10.21,10.21,0,0,0-9.21,7.66,16.6,16.6,0,0,0-.06,9.32,9.36,9.36,0,0,0,7.66,7.18,18.51,18.51,0,0,0,6.84.06,18.08,18.08,0,0,0,3.53-1,1.37,1.37,0,0,0,1-1.47c0-.71,0-1.46,0-2.21s-.36-1.16-1.23-.95-1.7.38-2.57.56a14.76,14.76,0,0,1-5.62.06,5,5,0,0,1-4-5.38A8.09,8.09,0,0,1,140.91,144Zm-.75-4.57a8,8,0,0,1,.57-2.06,4.45,4.45,0,0,1,4.69-2.81,4.9,4.9,0,0,1,1.59.36,2.25,2.25,0,0,1,1.37,1.88,3.4,3.4,0,0,1-.09,1.55,2.65,2.65,0,0,1-2.27,1.74,6,6,0,0,1-1.94.15,23.31,23.31,0,0,1-3.53-.27C140.1,139.89,140.1,139.89,140.16,139.41Z"/><path d="M241.74,144.28a12.35,12.35,0,0,0,5-1.28,5.57,5.57,0,0,0,3-4,8.1,8.1,0,0,0,0-3.29,6.94,6.94,0,0,0-4.9-5.23,13.22,13.22,0,0,0-4.46-.57c-5,.12-8.84,2.66-10.4,7.69a16.6,16.6,0,0,0,.12,10A9.2,9.2,0,0,0,237,154a16.13,16.13,0,0,0,4.48.44,18.75,18.75,0,0,0,6.43-1.22,1.33,1.33,0,0,0,1.07-1.56v-2.15c0-.86-.39-1.16-1.25-.95-.66.18-1.29.32-1.95.47a15,15,0,0,1-6.12.21,4.68,4.68,0,0,1-4-3.58,12.29,12.29,0,0,1-.33-1.83,1,1,0,0,1,.42.06A23.51,23.51,0,0,0,241.74,144.28Zm-6.25-4.78a7.4,7.4,0,0,1,1.2-3.26,4.48,4.48,0,0,1,4.36-1.7c.15,0,.27.06.42.06,2.09.33,2.6,2,2.21,3.61a2.63,2.63,0,0,1-2.39,1.86,7.59,7.59,0,0,1-1.85.15,29,29,0,0,1-3.62-.3c-.27,0-.39-.15-.33-.42Z"/></svg>