<svg id="Calque_1" data-name="Calque 1" xmlns="http://www.w3.org/2000/svg" viewBox="0 0 313 313"><path d="M186.32,176.78l-39.69-69,28.51-16.38,49.35,85.34H186.32"/><path d="M80.62,167.12l28.51-16.48,15.08,26.14H86.15l-5.53-9.66"/><path d="M136.57,220.78h8.11V188h-8.11Z"/><path d="M238.25,221.56c-9.08,0-14.53-4.69-14.83-11.29H232c0,2.07,1.29,5.09,6.82,5.2,3.69,0,5.42-2.17,5.42-3.8-.22-2.58-3.46-2.8-6.93-3.35a29.48,29.48,0,0,1-8.56-2.29,8.78,8.78,0,0,1-4.57-7.89c0-5.87,5.09-10.51,13.57-10.51,8.23,0,13.43,4.31,14,10.73h-8.26c-.08-1.73-.41-4.46-5.28-4.46-3.28,0-5.45.66-5.64,2.95,0,3.35,6.82,3.13,12.13,4.53,5.09,1.3,8.34,4.47,8.34,8.89,0,8.15-6.6,11.29-14.75,11.29"/><path d="M114,137.84l28.51-16.45,32,55.39H144.68v8.12h-8.11v-8.15L114,137.84"/><path d="M114.77,221.56a17.13,17.13,0,0,1-17.11-17,16.94,16.94,0,0,1,17.11-16.89,16.7,16.7,0,0,1,9.66,2.91V176.78h8.12v44h-8.12v-2.17a17.58,17.58,0,0,1-9.66,2.95Zm-9.33-17a9.5,9.5,0,1,0,9.55-9.44,9.53,9.53,0,0,0-9.55,9.44"/><path d="M174.74,176.78h8v44h-8v-2.17a17.43,17.43,0,0,1-9.78,2.95,17.11,17.11,0,0,1-17-17,17.21,17.21,0,0,1,26.78-14V176.78Zm-18.89,27.74a9.45,9.45,0,0,0,18.89,0,9.45,9.45,0,0,0-18.89,0"/><path d="M202.47,221.56a17.14,17.14,0,0,1-17-17,16.94,16.94,0,0,1,17-16.89,16.48,16.48,0,0,1,9.67,2.91v-2.62h8.11v32.86h-8.11v-2.17a17.07,17.07,0,0,1-9.67,2.95Zm-9.11-17a9.39,9.39,0,1,0,9.44-9.44,9.51,9.51,0,0,0-9.44,9.44"/><path d="M67.82,204.52a9.5,9.5,0,0,0,19,0,9.5,9.5,0,0,0-19,0Zm9.22,17a17.14,17.14,0,0,1-17-17,17.23,17.23,0,0,1,26.81-14v-2.62h8v32.86h-8v-2.17A17.4,17.4,0,0,1,77,221.56"/></svg>