<svg id="Calque_1" data-name="Calque 1" xmlns="http://www.w3.org/2000/svg" viewBox="0 0 313 313"><path d="M109.4,229.83v2.62h.34v-2.16h0l.79,2.16h.34l.8-2.16h0v2.16H112v-2.62h-.45l-.8,2.28-.8-2.28Zm-1.6.34v2.39h.34v-2.39h.91v-.34h-2.16v.34Zm75.55-95.8a2.62,2.62,0,0,0-2.73,2.39c0,1.14.11,2.73,1.37,2.05-5.92,5.69-27.77,42.21-34.82,54.95v.69s34.48-51.43,34.48-52c.45-3.53,4.32-1.37,4.43-4.21.12-2.05-.79-3.87-2.73-3.87M164.69,107a1.29,1.29,0,0,0-.91,0,.73.73,0,0,0,0,.68c.91,2.73,1.59,5,4.1,6.15,0-1.14-.91-3.08.23-3s1.36,1.25,2.16,1.93l.22-4.09a1.12,1.12,0,0,0-.79-.46c-.8,0-1.14.57-1.59,1a16.38,16.38,0,0,0-3.42-2.27m-1.25-29.7c-2.73,0-6.37.34-6.37,3.3,0,1,.8,1.6,1.59,2.16.12-.68,1.94-3.86,4-4a4.78,4.78,0,0,1,4.1,2.39c-.8-.45-3.3-.11-3.87,1.48-1,3,1.59,6.71,3,7.74a6.83,6.83,0,0,1-2.5-.91,13,13,0,0,0-7.06-2.05c-2.61,0-5,.34-5,3.07a5.66,5.66,0,0,0,5.8,5.69c.68,0,1-.68,1.71-.68s.79.45,1.25.68a7.4,7.4,0,0,1-1.48-4,3.14,3.14,0,0,1,.68-1.94,18.16,18.16,0,0,1,2.62,0c5.46.12,6.6,6.49,11.83,6.38,1.82,0,2.85-1,3.87-2.51.23-.34,0-.45,0-.45-1.14-.34-1.82,0-3.07,0a5,5,0,0,1-3.08-.91c.92-4.21,5.47-3.53,4.78-6A12.84,12.84,0,0,0,174,82.15a12.56,12.56,0,0,0-10.58-4.9m5.46,118.9a2.88,2.88,0,0,0,0,1c.8,1.59,2.16,1.82,2.85,3.52,1.48,4.1.57,7.06,2.39,10.93s3.3,5.91,5.68,9.33c1.14,1.47,3.08,2.5,2.39,4.21h1.14a4.33,4.33,0,0,0,2.39-.8c.23-.11,1-.23,1.14.11a1.71,1.71,0,0,1,.23.69c-.12,1.7-.69,2.5-1.26,4.09.23,0,.57.23.57,0a16.17,16.17,0,0,0,4.78,6.49c.91-.8,1.82-.69,2.73-1.48s.69-2.28,1.82-2.85,2.05-.11,3.08-.57c3.64-1.7,5.91-3.75,7.28-7.73a2.93,2.93,0,0,0-1.37-.57c-2.73-.12-4,2.27-6.71,2.16-1.37,0-2.05.34-3.41.34s-1.48-1.71-2.73-1.82c-1.48-.11-1.83,1.71-3.3,2.39a1.88,1.88,0,0,1,.11-1.36c.68-1.14,1.36-1.71,1.48-3.08a2,2,0,0,0-1.48-2c-1.93-.12-2.73,1.7-4.67,1.82,1-1.37,1.48-3.19,3.19-3.08a2.42,2.42,0,0,1,1.48.57c0-.23.23-.23.23-.45.11-3.76-3.08-5-4.21-8.54-.91-2.73.45-6.94-2.16-7.05s-3.53,3.3-3.65,6.14a14.59,14.59,0,0,0,1.26,7.29c.22.68,1.36,1.7.68,1.59-2-.12-2.5-2.28-3.41-4.1-1.94-3.75-3.53-5.8-4.56-9.9-.91-2.84-1-5.8-4-7.28m-38.68-8c-3.3,4.09-6.37,6.14-9.33,10.81-1.48,2.39-1,4.43-1.71,7.16-.8,3.19-2.62,4.78-2.5,8.2,0,1,.91,1.36.91,2.27-.34-.23-.46-.45-.91-.45s-.69.45-.91.91c.45.68,1.93,3.87,1.59,4.89-.23.11-.23,0-.57,0-1.25,0-1.71-1.14-2.27-2.28-.23,3.19-3.3,4.21-3.19,7.29,0,1.13.91,1.47,1.82,2.16,1.14.91,1.82,1.82,3.19,1.82.34,0,.45-.46.79-.46,1.37,0,1,2.05,1.94,3,1.36,1.37,2.84,1.14,4.66,1.37,2.39.22,3.87.91,6.15,0,.34-.12,1.13.11,1.13-.34,0-2.74-3.07-2.85-5.12-4.44s-1.7-4.33-4-5.58a6.62,6.62,0,0,0,1-3.3c0-3.64,1.7-5.46,3.64-8.42,4.09-6,6.6-9.44,11-15.13a1.07,1.07,0,0,0,.12-.8,1.4,1.4,0,0,1-.12-.56c-.45.45-1,.79-1,1.47,0,1.94-1.82,2-3.53,2.62-.91.23-.91,1.82-1.93,1.82s-1.82-.68-3-.68c-4.32,0-5.58,4.89-6.94,9.33a12,12,0,0,1-.91-5.69c0-3.87,3-5.35,5.23-8.31a28.79,28.79,0,0,0,5.12-8.64,2,2,0,0,1,.46-.8c.34-.34.57-.57.34-.91s-.57-.45-.68.11a7.39,7.39,0,0,1-.57,1.6m45.17-63.26c.91-.46,1-1.6,1.14-2.62.11-2.5-1.94-4-2.74-5.46a1.23,1.23,0,0,1,.91-1.94c2.17-.56,3.87.23,3.76-.34-.57-.79-2.85-4.43-.23-4.21a3.22,3.22,0,0,1,1.71,1.25c-1.14.69.11,1.82,1.36,3.42,1,1.25-.91,4-2.5,4,.8,1.37,2.85,1.93,6,4.66a8.54,8.54,0,0,1,2.39,3.87c.23,2.62-.91,3.87-3.07,3.53-1-.11-1.48-.8-2.51-.8s-.91.69-1.93.46c-2.27-.57-1.93-1.82-4.21-1.94-1.14-.11-1,2.28-3,3.19a4.28,4.28,0,0,1-1.36-.45c-.12,1,1.25.91,3,2,1.47,1,.91,2.28.45,3.19-1.36,3.07-5,2.16-3.3,5.12.8,1.25-4.89-.11-6.26-1.48-.34-.34.34,1,2.39,2.16,1.14.68-2.27,2.85-1.36,7.17,0,0-5.24-4.1-10.13-4.32-6.48-.34-6.26,13.54-12.74,13.19-4-.22-5.58-3.75-9.67-3.86-.57-.12-1,.34-1.48.57a5.86,5.86,0,0,1,1,.79c-1.93,1.48-3.18,3-3.3,5.46a2.2,2.2,0,0,0,.23.8c-1.25-1.25-3-1.71-2.85-3.64.12-1.25,1.14-1.71,2-2.39,2.05-1.71,3.64-2.05,6.15-2.5,2-.35,4.55-.35,4.78-2.51.34-3.18-.8-4-.57-7.28,0-2.5,1-5.69,8.64-5.8,1.94,0,2.05-5.12-.11-8.08-.23-.34.11-.23.68,0s-4-4.66-5.46-8.76a11,11,0,0,1-.34-6.83c.23-.79,1.59-3.07.57-2.84,0,0,2.05-3,4.32-3.19,5.81-.57,8.31,4.89,8.31,4.89-.34-3.18-4-5-4.33-6.14-.68-1.82,2.39-3,3.08-4.21a8.5,8.5,0,0,0,1.48-4.32c.34,6.26,4.89,10.35,8.76,15,2.5,3.18,8.53,10.69,10.24,11.15"/></svg>