<svg id="Calque_1" data-name="Calque 1" xmlns="http://www.w3.org/2000/svg" viewBox="0 0 313 313"><path d="M129.39,127.92a8.58,8.58,0,1,1-8.63-8.52h0a8.54,8.54,0,0,1,8.58,8.5Z"/><path d="M105.92,140.24v12.63H91.19V173.8c0,4.66,2.14,6.47,7,6.47h7.9v12.1h-8.9c-13.89,0-20.07-6.2-20.07-17.87V152.87H69.36V140.24a7.54,7.54,0,0,0,7.57-7.5h0v-5.9h14.2v13.41Z"/><path d="M127.9,140.24H113.78v52.14H128Z"/><path d="M176.17,188.54a25.73,25.73,0,0,1-15.36,4.56,26.67,26.67,0,0,1,0-53.34,26,26,0,0,1,15.36,4.65V122.7h14.19v69.7H176.17Zm.19-22a14.12,14.12,0,0,0-14.21-14h-.08a14,14,0,1,0,14.29,14Z"/><path d="M222.73,193.6c-16.78,0-27.6-11.68-27.6-27,0-15,11.26-27.23,27.72-27.23s26.59,11.4,26.59,26.54c0,2-.19,4.65-.19,5H209.14A13.5,13.5,0,0,0,223,181.74a16.2,16.2,0,0,0,13.89-6.89l10.66,6.47C242.51,188.85,234.4,193.6,222.73,193.6Zm-13.09-33.31h25.45a12.11,12.11,0,0,0-12.36-9.45A12.87,12.87,0,0,0,209.64,160.29Z"/><path d="M258.06,191.86a3.51,3.51,0,0,1-4.93,0,3.27,3.27,0,0,1-1-2.47,3.14,3.14,0,0,1,1.1-2.53,3.41,3.41,0,0,1,2.39-.93,3.47,3.47,0,0,1,2.49,1,3.24,3.24,0,0,1,1.05,2.47A3.48,3.48,0,0,1,258.06,191.86Zm-4.54-4.5a2.84,2.84,0,0,0,0,4l0,0a2.89,2.89,0,0,0,4.09,0,2.82,2.82,0,0,0,.85-1.93,2.92,2.92,0,0,0-.85-2,2.68,2.68,0,0,0-2.05-1A3.21,3.21,0,0,0,253.52,187.36Zm.56,4v-3.86H256a1.65,1.65,0,0,1,.73.19,1,1,0,0,1,.51.95.88.88,0,0,1-.26.69,1,1,0,0,1-.63.26.93.93,0,0,1,.54.25,1,1,0,0,1,.35.83v.65h-.95a1.75,1.75,0,0,1,0-.56,3.84,3.84,0,0,0,0-.48.47.47,0,0,0-.29-.31,1,1,0,0,0-.35,0h-.4v1.39h-1.18Zm1.93-3.07a3,3,0,0,0-.6,0h-.25v1.14h.4a.77.77,0,0,0,.55-.15.47.47,0,0,0,.21-.45.42.42,0,0,0-.25-.52l-.16,0Z"/></svg>