<svg id="Calque_1" data-name="Calque 1" xmlns="http://www.w3.org/2000/svg" viewBox="0 0 313 313"><path d="M148.1,153.39v2.93a38.05,38.05,0,0,1,6.39.36,10.06,10.06,0,0,1,5.12,1.65,4.88,4.88,0,0,1,2.19,4.2V176.6a1.36,1.36,0,0,1-.37.91c-3.1,3.11-6.39,4.57-9.5,4.57-7.67,0-13.15-8.41-14.07-22.29,0-.91-.18-4,0-5.85.92-15,6.95-23.38,14.62-23.38,6.4,0,11.88,4.75,15.71,17.35H170L169.84,134c-2.56-3.47-9.32-6.76-17.54-6.76a23.71,23.71,0,0,0-18.82,9.32c-6,8-7.67,19.18-5.12,28.86a29.35,29.35,0,0,0,10.42,16.26,20.86,20.86,0,0,0,12.24,4,17.84,17.84,0,0,0,9.68-3.1,5.57,5.57,0,0,1,6-.19l3.47,2h1.65v-22.1c0-4.21,1.46-5.48,6.39-6v-2.93Z"/><path d="M81.78,164.17c-5.67,7.68-9,12.06-11.7,14.62-2.19,2-4,2.37-7.67,2.37H50.9c-.18,0-.36-.18-.18-.36l29.6-48.6-1.47-3.65H42.68l-5.85,19,1.65.73c5.48-7.49,8.77-11.69,11.14-14.07,2-2,4-2.19,7.31-2.19h11c.18,0,.37.18.18.36L38.66,180.8l1.46,3.65H77.39l6-19.55Z"/><path d="M107.54,156.68c-1.83-.55-7.13-.36-7.13-.36a.49.49,0,0,0-.55.55v23.75a.48.48,0,0,0,.55.54h6.94c2.93,0,4.57-.18,6.4-1.82,2.19-2,4.93-5.67,9.68-12.06l1.65.73L120,184.64H84.88v-2.56a9,9,0,0,0,1.83-.19,3.33,3.33,0,0,0,2.38-1.46,4.06,4.06,0,0,0,.73-2.37V135.12a3.71,3.71,0,0,0-.73-2.37,4.08,4.08,0,0,0-2.38-1.46,9.53,9.53,0,0,0-1.83-.18v-2.56h34.9l5.11,16.62-1.64.73c-4.57-6.39-7.49-10-9.68-12.05-1.83-1.65-3.47-1.83-6.4-1.83h-6.94a.48.48,0,0,0-.55.55v20.28a.48.48,0,0,0,.55.54s4.2,0,5.85-.18c2-.36,2.92-1.46,3.1-3.65,0-1.46-.73-4.57-.73-4.94H111l6.21,19.55h-2.74C112.84,160.34,111.74,158,107.54,156.68Z"/><path d="M183.54,134.94c-2.56-3.1-4-3.83-7.67-3.83v-2.56h16.44l25,42.93c.18.18.36.18.36-.18V138.23a7.59,7.59,0,0,0-1.28-4.38,7.13,7.13,0,0,0-4.56-2.56,22.79,22.79,0,0,0-3.29-.18v-2.56h20.1v2.56c-2.38.18-4.76.73-6.22,2.74a7.28,7.28,0,0,0-1.28,4.38v46.22H213l-25.21-42.93c-.18-.18-.36-.18-.36.18v33.07a7.65,7.65,0,0,0,1.27,4.38c1.83,2.56,5.3,2.74,8.23,2.74v2.56H176.41v-2.56c2.38-.18,4.75-.73,6.22-2.74a7.28,7.28,0,0,0,1.27-4.38V136A2.64,2.64,0,0,0,183.54,134.94Z"/><path d="M253.88,166.37H238.17c-.19,0-.37-.19-.19-.37l8-24.3c0-.18.37-.18.37,0l7.85,24.3A.4.4,0,0,1,253.88,166.37Zm14.25,9.31L252.6,128.55H238v2.56c2.93,0,3.29.18,3.84.36a5.8,5.8,0,0,1,2.37,3.47,1.24,1.24,0,0,1,0,.92l-13.33,40.37c-1.28,3.84-2.93,5.12-6,5.48v2.56h17v-2.56c-4.93,0-6.58-1.09-6.58-1.09-2-1.1-.91-4.39-.91-4.39l2-6.39a1.2,1.2,0,0,1,.91-.73h17.18a.93.93,0,0,1,.91.73l2,6.39a7.93,7.93,0,0,1,.36,2.92c-.36,1.65-2.19,2-3.65,2.2a18,18,0,0,1-3.11.18v2.56h25.22v-2.56C271.6,181.35,269.59,179.7,268.13,175.68Z"/></svg>