<svg id="Calque_1" data-name="Calque 1" xmlns="http://www.w3.org/2000/svg" viewBox="0 0 313 313"><defs><style>.cls-1{fill-rule:evenodd;}</style></defs><path class="cls-1" d="M270.46,123a4.55,4.55,0,1,0,4.54,4.55v0A4.53,4.53,0,0,0,270.46,123Zm0,8.54a4,4,0,0,1-4-4v0a4,4,0,0,1,4-4h0a4,4,0,0,1,0,8Z"/><path class="cls-1" d="M272.8,126.32a1.23,1.23,0,0,0-.57-1.09A2.31,2.31,0,0,0,271,125h-2.21v5.08h.62v-2.35h1.14l1.45,2.35h.74l-1.54-2.35c.91,0,1.61-.39,1.61-1.39Zm-2.45.91h-1v-1.8h1.45c.63,0,1.32.1,1.32.88C272.17,127.35,271.06,127.23,270.35,127.23ZM118.26,202.49,88.64,188a2.07,2.07,0,0,1-1-1.77l.07-8a1.9,1.9,0,0,1,.87-1.67c3.16-2,13-7.45,23.1-22.24,13.5-19.69,0-36.24-21.09-31.73-18.73,4-37.8,14.14-46.07,19.65-7.37,4.92-6.35,10.85-6.55,16.18.41,2.25,1.23,2.05,3.07-.21,13.72-12.69,34.61-22.32,38.5-23.95s13.1-7.17,24-4.71c10.43,2.36,7.89,16.53,4.71,22.52-3.48,6.55-13.41,16.07-17.91,18.43-1.72.89-2.36,0-2.36-1.44l.72-30.81c0-2.05-.92-3-3-2.25l-3.28,1.63c-2.25,1.34-2.15,1.85-2.35,3.49l-.5,35.52a1.7,1.7,0,0,1-.79,1.56l-10.69,6c-2.46,1.22-1.84,3.07,0,3.68l8.6,4.1c2,.81,2.66,1.43,2.66,3.48l-.3,17.2c7.67-1.54,8.19-5.23,8.39-7.68v-5.22c.2-1.23.92-1.64,1.94-1.44l25,12.08c2.26,1,3.49.62,5.12-2.25s1.85-4.3-1.23-5.73Zm43.66-43.4c-3.47,2-5.08,5.76-3.71,8.13s5.49,2.76,9,.76,5-5.66,3.61-8S165.39,157.09,161.92,159.09Z"/><path class="cls-1" d="M149.11,161.64a49.36,49.36,0,0,0-3.79,6.81c-1,2.15-3.17,7-5.32,7s-2.56-5.63-2.56-7.67-1.23-2.36-1.84-2.26a3.7,3.7,0,0,0-2.87,2.87c-.51,2.15-3.28,11.47-6.35,11.47-1.94,0-3.38-5.63-3.48-7.37s-.92-3.18-2.66-3.18a5.1,5.1,0,0,0-3.38,1.33c-.61.72-.72,1.85-4,1.13-3-.1-5.84,1.43-9.32,7.27-2.09,3.51-3.8,10.06-.61,12.69,3,2.46,8.19-1.94,9.72-3.79a50.2,50.2,0,0,0,3.48-4.19c.62-1,1.23-.92,1.54.1s2,5,4.3,4.92,5.12-1.85,8.5-7.79c.61-1.23,1.53-1.12,1.74-.1s1.53,4.4,3.79,4.4,4.54-3.41,5.73-5.42c.82-1.38,2-.72,2,.61s-.62,32.76-.62,32.76c0,1.44.57,1.85,1.59,1.85h4.45a1.67,1.67,0,0,0,1.54-1.85l.92-50.93c0-1.23-1.38-2.1-2.56-.67ZM114.3,181.71c-.92,1.54-3.38,5.63-5.53,4.91-1.12-.61.38-4.71,1.13-6.14,1.13-2.15,4.43-5.57,5.94-4.71s-.62,4.4-1.54,5.94Zm156-31.4a2,2,0,0,1-2.56.3c-2.56-1-2.76-5.83-4.09-10.23-1.2-4-4.08-3.71-5.12-1.9l-3.12,5c-.56,1-1.79,3.38-3,3.38-1.44,0-.79-2-.72-4.1.05-1.38-.82-3.12-2.25-3.12-1.64,0-3.38,2.51-4.71,5.38-.93,2-3.33,9.67-6.35,9.67-1.94,0-2.15-5.63-2.25-7.37s-.72-3.89-2.46-3.89a3.27,3.27,0,0,0-2.56,1.33c-.61.72-.71,1.33-2.86,1-3-.1-7.88,2.66-11.37,8.5-2.09,3.51-4.61,10.88-1.43,13.51,3,2.46,8.29-3.27,9.83-5.12s2.86-3.17,3.48-4.19,1.23-.92,1.53.1,2.05,5,4.31,4.91,4.09-.61,7.47-6.55c.61-1.23,1.74-1.38,1.94-.36s.41,3.74,2.56,3.74c3.69,0,7.86-9,8.91-11.06.92-1.84,2.41-1.33,2.92.05.73,2,1.38,8.35,5.37,8.35s6.71-4.25,7.53-5.58.44-3-1-1.79Zm-43.4,6.14c-.92,1.54-3,4.91-5.12,4.2-1.13-.62.27-3.59,1-5,1.13-2.15,4.43-5.62,5.94-4.76s-.92,4-1.84,5.58Zm-19.78-5.37s-8.7-6.34-11.16-9.21c-1.65-1.92-.51-3.38.51-4.2,6.14-4.09,15.77-10.44,19.55-20.27,3.65-9.47-2-17.71-6.14-19-5.61-1.82-17.51,1.84-23.45,12.9-3.84,7.16-5.62,9.52-6.14,29-.1,3.69-.2,7.89-.2,12.49s-.51,17.1-1,19.45c-1.94,5.53,3.89,2.26,6.56.11s2.45-5.38,2.45-6.76c0-1.74.11-32.45,1-39.31.57-4.27,1.23-12.19,5.73-19s9.11-4.09,10.34-3,3,4,2.05,9.82c-1.43,9.06-11.88,18.94-14.54,22s-2,5.74-.51,7.89a75.9,75.9,0,0,0,6.55,7.27,6.81,6.81,0,0,1,2,7.06c-1.44,5.53-16.38,20.48-16.38,20.48-3.18,3.38.1,8.9,1.22,10.75s2.56,1.23,3.49-.31c3.68-6.86,19.55-23.45,19.55-23.45,4.61-5.83,2.66-11.46-1.53-14.64Z"/></svg>