<svg id="Calque_1" data-name="Calque 1" xmlns="http://www.w3.org/2000/svg" viewBox="0 0 313 313"><path d="M295.24,77.06V235.94H17.76V77.06ZM293,79.31H20V234H293Z"/><path d="M290.74,81.56l-.14,150.16H22.26V81.56Zm-.56.85H22.82V230.87H290.18Z"/><path d="M119.91,136.39l5.36,14.34c.59-.39.88-1.4,1.16-2.06,1.15-2.61,4.11-8.76,4.63-11.16a1.46,1.46,0,0,0-.17-1.12h7.32c-.18.42-.53.68-.71,1.13-.65,1.64-.71,13.89-.06,15.53.21.55.85.71.77,1.34h-5.63V154a3.77,3.77,0,0,0,1.12-1.69V139.49c-.6.38-.87,1.4-1.17,2.06-1.54,3.39-3.87,7.94-5,11.37-.18.56-.39.89-.06,1.47h-4.06l-6.35-15.47V152c0,.83.94,1.76,1.41,2.39H112.6c.24-.54.79-.75,1.05-1.34.58-1.29.56-12,.36-14a5.31,5.31,0,0,0-1.13-2.68Z"/><path d="M221.51,141.46l5.06,9.84v-8.58c0-.25-.78-.9-.84-1.26h4.5c-.07.35-.5.57-.63.91-.53,1.42-.29,8.48-.23,10.49a12.93,12.93,0,0,0,.3,1.53H224.6a2.07,2.07,0,0,0-.15-1.1c-1.49-3.16-3.73-6-4.92-9.3h-.41c-.4,0,.14.35.14.42v8.43c0,.82,1,1.13,1.12,1.55h-5.06c0-.44.41-.19.65-.63a4,4,0,0,0,.49-1.74,56.73,56.73,0,0,0,0-8.45,4,4,0,0,0-.84-2.11Z"/><path d="M85.51,141.24c4.24-.66,9.22.79,9.64,5.7.48,5.66-4.2,8.36-9.36,7.66C77.75,153.5,78.26,142.37,85.51,141.24Zm5,3.11c-2.07-1.85-6.2-.86-7,2-1.1,3.92,1.14,6.49,5.18,5.74C91.94,151.49,92.79,146.35,90.56,144.35Z"/><path d="M197,141.25c6-.87,10.61,2.12,9.23,8.66s-13.87,6.31-14.77-.18C190.85,145.64,192.58,141.88,197,141.25Zm1.41,2.24c-4.54.49-4.92,7.34-1.55,8.43,2.59.84,5.75,0,6.12-3C203.35,145.59,202,143.1,198.37,143.49Z"/><path d="M254.15,141.46c-.42,1,.33,2.1.57,3.09-.24.19-2.26-.84-2.68-.84h-7.17v2.81h6.89c.06,0,.32-.42.42-.28l-1.54,2.53h-5.77v3.37h6.61c.63,0,3.39-1.26,3.52-1.12l-.85,3.37h-13.5c-.06-.45.41-.17.65-.63.68-1.34.67-8.17.47-9.91a6.44,6.44,0,0,0-.84-2.39Z"/><path d="M146.09,154.39l6.59-12.95,4.63.05,5.94,12.9h-4.78c.86-1,.27-1.68,0-2.81h-7.6a3.52,3.52,0,0,0,0,2.81Zm11.25-5.06-2.53-5.9c-.38-.29-2.49,5.48-2.81,5.9Z"/><path d="M72.07,136.39a4,4,0,0,0-1.1,2.14c-.62,4.41,1.7,12.92-3.15,15.41-3.26,1.68-6.78.07-10.1.45v-4.22c3.19,2.33,9,3.55,9.57-1.82.16-1.47.18-9.78-.21-10.76-.19-.47-.75-.73-.92-1.2Z"/><path d="M176.2,141.46c.12.09-.84,1-.84,1.26v9.42h5.2c.5,0,3.09-1.27,3.24-1.12l-.85,3.37H171.42c.15-.48.58-.91.71-1.4a53.59,53.59,0,0,0,.13-9.42,4.05,4.05,0,0,0-.84-2.11Z"/><path d="M188.86,179.28c0,.08.43.31.28.42h-2a16.68,16.68,0,0,0,0-6.75l2.47.06,3.44,5.28v-4.64c0-.08-.39-.4-.29-.7h2c-1,1.77-.63,4.77-.28,6.75-.58-.11-1.75.19-2.19-.06s-2.51-4.73-3.44-5.28C189,175.9,188.66,177.78,188.86,179.28Z"/><path d="M159.88,179.7c-.14-.1.28-.36.28-.42v-5.91c0-.08-.36-.21-.28-.42h4.92c1.28,0,2.71,2.21,2.65,3.49s-1.61,3.26-2.93,3.26Zm1.69-1.13c6.08,1.18,5.82-5.78,0-4.5Z"/><path d="M147.78,178.71c0,.21.67.9.56,1h-2a17,17,0,0,0,0-6.75l2.49.05,3.42,5.29v-4.36c0-.16-.68-.89-.56-1h2c.14.1-.29.36-.29.42v6.33c-.59-.06-1.46.17-2-.14-.73-.44-2.59-4.75-3.65-5.49C147.94,175.5,147.55,177.36,147.78,178.71Z"/><path d="M180.33,178.76c-1.78,1.83-6.27,1.44-6.88-1.23-1.51-6.55,9.28-6.16,7.62-.13A4.28,4.28,0,0,1,180.33,178.76Zm-4.89-4.31c-2.22,2,.7,6.12,3.44,3.85C181.41,176.22,178.14,172,175.44,174.45Z"/><path d="M118.79,171.4c0-.08-.42-.31-.28-.42H121c.11.31-.28.62-.28.7v6.89a13.82,13.82,0,0,0,5.91-.84l-.28,2h-7.88c-.08-.21.28-.34.28-.42A69,69,0,0,0,118.79,171.4Z"/><path d="M139.53,173.88a4,4,0,0,1-.77,5.39c-3.4,2-8-.93-5.86-4.74C134.1,172.38,138,172.16,139.53,173.88Zm-3.64,0c-2.89.47-2.7,5.32.73,5C139.88,178.53,139.55,173.26,135.89,173.85Z"/></svg>